<?xml version="1.0" encoding="UTF-8"?>
<svg xmlns="http://www.w3.org/2000/svg" xmlns:xlink="http://www.w3.org/1999/xlink" width="375pt" height="374.999991pt" viewBox="0 0 375 374.999991" version="1.2">
<defs>
<clipPath id="clip1">
  <path d="M 279 0 L 375 0 L 375 94.5 L 279 94.5 Z M 279 0 "/>
</clipPath>
</defs>
<g id="surface1">
<path style=" stroke:none;fill-rule:nonzero;fill:rgb(10.198975%,9.799194%,9.408569%);fill-opacity:1;" d="M 0 13.929688 L 14.65625 13.929688 L 14.65625 67.355469 L 41.796875 67.355469 L 41.796875 80.890625 L 0 80.890625 L 0 13.929688 "/>
<path style=" stroke:none;fill-rule:nonzero;fill:rgb(10.198975%,9.799194%,9.408569%);fill-opacity:1;" d="M 55.3125 12.9375 C 59.824219 12.9375 63.484375 16.601562 63.484375 21.113281 C 63.484375 25.628906 59.824219 29.285156 55.3125 29.285156 C 50.804688 29.285156 47.144531 25.628906 47.144531 21.113281 C 47.144531 16.601562 50.804688 12.9375 55.3125 12.9375 Z M 48.265625 35.496094 L 62.355469 35.496094 L 62.355469 80.875 L 48.265625 80.875 Z M 48.265625 35.496094 "/>
<path style=" stroke:none;fill-rule:nonzero;fill:rgb(10.198975%,9.799194%,9.408569%);fill-opacity:1;" d="M 70.148438 35.5 L 83.667969 35.5 L 83.667969 41.703125 L 83.859375 41.703125 C 85.734375 38.132812 90.339844 34.375 97.195312 34.375 C 111.464844 34.375 114.097656 43.769531 114.097656 55.984375 L 114.097656 80.875 L 100.011719 80.875 L 100.011719 58.808594 C 100.011719 53.542969 99.917969 46.777344 92.679688 46.777344 C 85.359375 46.777344 84.230469 52.515625 84.230469 58.433594 L 84.230469 80.875 L 70.148438 80.875 L 70.148438 35.5 "/>
<path style=" stroke:none;fill-rule:nonzero;fill:rgb(10.198975%,9.799194%,9.408569%);fill-opacity:1;" d="M 121.242188 13.925781 L 135.328125 13.925781 L 135.328125 53.945312 L 151.285156 35.476562 L 168.542969 35.476562 L 150.074219 56.484375 L 168.164062 80.890625 L 150.453125 80.890625 L 135.511719 58.457031 L 135.328125 58.457031 L 135.328125 80.890625 L 121.242188 80.890625 L 121.242188 13.925781 "/>
<path style=" stroke:none;fill-rule:nonzero;fill:rgb(10.198975%,9.799194%,9.408569%);fill-opacity:1;" d="M 210.121094 73.015625 C 205.613281 78.753906 198.199219 82.039062 190.875 82.039062 C 176.785156 82.039062 165.515625 72.640625 165.515625 58.074219 C 165.515625 43.507812 176.785156 34.109375 190.875 34.109375 C 204.027344 34.109375 212.285156 43.507812 212.285156 58.074219 L 212.285156 62.492188 L 179.601562 62.492188 C 180.722656 67.847656 184.765625 71.324219 190.214844 71.324219 C 194.816406 71.324219 197.914062 68.976562 200.265625 65.777344 Z M 198.199219 52.90625 C 198.292969 48.207031 194.628906 44.261719 189.554688 44.261719 C 183.355469 44.261719 179.976562 48.488281 179.601562 52.90625 Z M 198.199219 52.90625 "/>
<path style=" stroke:none;fill-rule:nonzero;fill:rgb(10.198975%,9.799194%,9.408569%);fill-opacity:1;" d="M 265.867188 80.867188 L 252.902344 80.867188 L 252.902344 74.847656 L 252.71875 74.847656 C 250.546875 78.136719 245.105469 81.988281 238.71875 81.988281 C 225.191406 81.988281 216.273438 72.222656 216.273438 58.402344 C 216.273438 45.714844 224.15625 34.0625 237.121094 34.0625 C 242.945312 34.0625 248.390625 35.65625 251.589844 40.074219 L 251.773438 40.074219 L 251.773438 13.925781 L 265.867188 13.925781 Z M 241.625 46.464844 C 234.582031 46.464844 230.359375 51.171875 230.359375 58.023438 C 230.359375 64.894531 234.585938 69.585938 241.625 69.585938 C 248.671875 69.585938 252.902344 64.894531 252.902344 58.023438 C 252.902344 51.171875 248.671875 46.464844 241.625 46.464844 Z M 241.625 46.464844 "/>
<g clip-path="url(#clip1)" clip-rule="nonzero">
<path style=" stroke:none;fill-rule:nonzero;fill:rgb(0%,37.649536%,52.938843%);fill-opacity:1;" d="M 367.929688 -0.132812 L 286.960938 -0.132812 C 283.097656 -0.132812 279.953125 2.9375 279.953125 6.722656 L 279.953125 88.085938 C 279.953125 91.882812 283.097656 94.949219 286.960938 94.949219 L 367.929688 94.949219 C 371.808594 94.949219 374.96875 91.882812 374.96875 88.085938 L 374.96875 6.722656 C 374.96875 2.9375 371.808594 -0.132812 367.929688 -0.132812 "/>
</g>
<path style=" stroke:none;fill-rule:nonzero;fill:rgb(100%,100%,100%);fill-opacity:1;" d="M 301.085938 12.957031 C 305.59375 12.957031 309.253906 16.621094 309.253906 21.132812 C 309.253906 25.648438 305.59375 29.3125 301.085938 29.3125 C 296.566406 29.3125 292.917969 25.648438 292.917969 21.132812 C 292.917969 16.621094 296.566406 12.957031 301.085938 12.957031 Z M 294.039062 35.515625 L 308.132812 35.515625 L 308.132812 80.890625 L 294.039062 80.890625 Z M 294.039062 35.515625 "/>
<path style=" stroke:none;fill-rule:nonzero;fill:rgb(100%,100%,100%);fill-opacity:1;" d="M 316.96875 35.515625 L 330.488281 35.515625 L 330.488281 41.714844 L 330.679688 41.714844 C 332.558594 38.148438 337.15625 34.386719 344.011719 34.386719 C 358.28125 34.386719 360.914062 43.785156 360.914062 56.003906 L 360.914062 80.890625 L 346.835938 80.890625 L 346.835938 58.824219 C 346.835938 53.5625 346.738281 46.792969 339.507812 46.792969 C 332.175781 46.792969 331.054688 52.523438 331.054688 58.445312 L 331.054688 80.890625 L 316.96875 80.890625 L 316.96875 35.515625 "/>
</g>
</svg>
