<?xml version="1.0" encoding="UTF-8"?>
<svg xmlns="http://www.w3.org/2000/svg" xmlns:xlink="http://www.w3.org/1999/xlink" width="375pt" height="374.999991pt" viewBox="0 0 375 374.999991" version="1.2">
<defs>
<clipPath id="clip1">
  <path d="M 20.894531 157 L 58 157 L 58 218 L 20.894531 218 Z M 20.894531 157 "/>
</clipPath>
<clipPath id="clip2">
  <path d="M 269 145.394531 L 353.695312 145.394531 L 353.695312 229.394531 L 269 229.394531 Z M 269 145.394531 "/>
</clipPath>
</defs>
<g id="surface1">
<g clip-path="url(#clip1)" clip-rule="nonzero">
<path style=" stroke:none;fill-rule:nonzero;fill:rgb(10.198975%,9.799194%,9.408569%);fill-opacity:1;" d="M 20.894531 157.804688 L 33.902344 157.804688 L 33.902344 205.414062 L 57.988281 205.414062 L 57.988281 217.472656 L 20.894531 217.472656 L 20.894531 157.804688 "/>
</g>
<path style=" stroke:none;fill-rule:nonzero;fill:rgb(10.198975%,9.799194%,9.408569%);fill-opacity:1;" d="M 69.984375 156.921875 C 73.988281 156.921875 77.234375 160.1875 77.234375 164.207031 C 77.234375 168.230469 73.988281 171.488281 69.984375 171.488281 C 65.984375 171.488281 62.734375 168.230469 62.734375 164.207031 C 62.734375 160.1875 65.984375 156.921875 69.984375 156.921875 Z M 63.730469 177.023438 L 76.234375 177.023438 L 76.234375 217.457031 L 63.730469 217.457031 Z M 63.730469 177.023438 "/>
<path style=" stroke:none;fill-rule:nonzero;fill:rgb(10.198975%,9.799194%,9.408569%);fill-opacity:1;" d="M 83.148438 177.027344 L 95.148438 177.027344 L 95.148438 182.554688 L 95.316406 182.554688 C 96.984375 179.371094 101.070312 176.023438 107.152344 176.023438 C 119.816406 176.023438 122.152344 184.394531 122.152344 195.28125 L 122.152344 217.457031 L 109.652344 217.457031 L 109.652344 197.796875 C 109.652344 193.105469 109.570312 187.078125 103.144531 187.078125 C 96.652344 187.078125 95.648438 192.1875 95.648438 197.460938 L 95.648438 217.457031 L 83.148438 217.457031 L 83.148438 177.027344 "/>
<path style=" stroke:none;fill-rule:nonzero;fill:rgb(10.198975%,9.799194%,9.408569%);fill-opacity:1;" d="M 128.492188 157.800781 L 140.992188 157.800781 L 140.992188 193.460938 L 155.15625 177.003906 L 170.472656 177.003906 L 154.082031 195.726562 L 170.136719 217.472656 L 154.417969 217.472656 L 141.15625 197.484375 L 140.992188 197.484375 L 140.992188 217.472656 L 128.492188 217.472656 L 128.492188 157.800781 "/>
<path style=" stroke:none;fill-rule:nonzero;fill:rgb(10.198975%,9.799194%,9.408569%);fill-opacity:1;" d="M 207.371094 210.453125 C 203.371094 215.570312 196.789062 218.496094 190.289062 218.496094 C 177.789062 218.496094 167.785156 210.121094 167.785156 197.140625 C 167.785156 184.160156 177.789062 175.789062 190.289062 175.789062 C 201.964844 175.789062 209.292969 184.160156 209.292969 197.140625 L 209.292969 201.078125 L 180.285156 201.078125 C 181.28125 205.851562 184.867188 208.949219 189.703125 208.949219 C 193.789062 208.949219 196.535156 206.855469 198.625 204.007812 Z M 196.789062 192.535156 C 196.875 188.347656 193.621094 184.832031 189.117188 184.832031 C 183.617188 184.832031 180.617188 188.601562 180.285156 192.535156 Z M 196.789062 192.535156 "/>
<path style=" stroke:none;fill-rule:nonzero;fill:rgb(10.198975%,9.799194%,9.408569%);fill-opacity:1;" d="M 256.84375 217.453125 L 245.335938 217.453125 L 245.335938 212.089844 L 245.175781 212.089844 C 243.25 215.019531 238.417969 218.453125 232.75 218.453125 C 220.746094 218.453125 212.832031 209.746094 212.832031 197.433594 C 212.832031 186.128906 219.828125 175.742188 231.332031 175.742188 C 236.5 175.742188 241.335938 177.167969 244.171875 181.101562 L 244.335938 181.101562 L 244.335938 157.800781 L 256.84375 157.800781 Z M 235.328125 186.796875 C 229.082031 186.796875 225.332031 190.988281 225.332031 197.097656 C 225.332031 203.21875 229.082031 207.398438 235.328125 207.398438 C 241.582031 207.398438 245.335938 203.21875 245.335938 197.097656 C 245.335938 190.988281 241.582031 186.796875 235.328125 186.796875 Z M 235.328125 186.796875 "/>
<g clip-path="url(#clip2)" clip-rule="nonzero">
<path style=" stroke:none;fill-rule:nonzero;fill:rgb(0%,37.649536%,52.938843%);fill-opacity:1;" d="M 347.421875 145.273438 L 275.566406 145.273438 C 272.136719 145.273438 269.34375 148.011719 269.34375 151.382812 L 269.34375 223.886719 C 269.34375 227.265625 272.136719 230 275.566406 230 L 347.421875 230 C 350.867188 230 353.671875 227.265625 353.671875 223.886719 L 353.671875 151.382812 C 353.671875 148.007812 350.867188 145.273438 347.421875 145.273438 "/>
</g>
<path style=" stroke:none;fill-rule:nonzero;fill:rgb(100%,100%,100%);fill-opacity:1;" d="M 288.097656 156.941406 C 292.101562 156.941406 295.347656 160.203125 295.347656 164.222656 C 295.347656 168.246094 292.101562 171.511719 288.097656 171.511719 C 284.089844 171.511719 280.851562 168.246094 280.851562 164.222656 C 280.851562 160.203125 284.089844 156.941406 288.097656 156.941406 Z M 281.84375 177.039062 L 294.351562 177.039062 L 294.351562 217.472656 L 281.84375 217.472656 Z M 281.84375 177.039062 "/>
<path style=" stroke:none;fill-rule:nonzero;fill:rgb(100%,100%,100%);fill-opacity:1;" d="M 302.195312 177.039062 L 314.195312 177.039062 L 314.195312 182.5625 L 314.363281 182.5625 C 316.03125 179.386719 320.109375 176.035156 326.195312 176.035156 C 338.859375 176.035156 341.195312 184.40625 341.195312 195.296875 L 341.195312 217.472656 L 328.699219 217.472656 L 328.699219 197.8125 C 328.699219 193.121094 328.617188 187.089844 322.199219 187.089844 C 315.691406 187.089844 314.695312 192.195312 314.695312 197.472656 L 314.695312 217.472656 L 302.195312 217.472656 L 302.195312 177.039062 "/>
</g>
</svg>
