<?xml version="1.0" encoding="UTF-8"?>
<svg xmlns="http://www.w3.org/2000/svg" xmlns:xlink="http://www.w3.org/1999/xlink" width="240.75pt" height="141.750002pt" viewBox="0 0 240.75 141.750002" version="1.2">
<defs>
<clipPath id="clip1">
  <path d="M 0.0859375 49 L 27 49 L 27 93 L 0.0859375 93 Z M 0.0859375 49 "/>
</clipPath>
<clipPath id="clip2">
  <path d="M 179 40.390625 L 240.414062 40.390625 L 240.414062 101.097656 L 179 101.097656 Z M 179 40.390625 "/>
</clipPath>
</defs>
<g id="surface1">
<g clip-path="url(#clip1)" clip-rule="nonzero">
<path style=" stroke:none;fill-rule:nonzero;fill:rgb(10.198975%,9.799194%,9.408569%);fill-opacity:1;" d="M 0.0859375 49.421875 L 9.480469 49.421875 L 9.480469 84.066406 L 26.878906 84.066406 L 26.878906 92.84375 L 0.0859375 92.84375 L 0.0859375 49.421875 "/>
</g>
<path style=" stroke:none;fill-rule:nonzero;fill:rgb(10.198975%,9.799194%,9.408569%);fill-opacity:1;" d="M 35.542969 48.78125 C 38.4375 48.78125 40.78125 51.15625 40.78125 54.082031 C 40.78125 57.011719 38.4375 59.378906 35.542969 59.378906 C 32.65625 59.378906 30.308594 57.011719 30.308594 54.082031 C 30.308594 51.15625 32.65625 48.78125 35.542969 48.78125 Z M 31.027344 63.40625 L 40.058594 63.40625 L 40.058594 92.832031 L 31.027344 92.832031 Z M 31.027344 63.40625 "/>
<path style=" stroke:none;fill-rule:nonzero;fill:rgb(10.198975%,9.799194%,9.408569%);fill-opacity:1;" d="M 45.054688 63.410156 L 53.722656 63.410156 L 53.722656 67.433594 L 53.84375 67.433594 C 55.046875 65.117188 58 62.679688 62.394531 62.679688 C 71.539062 62.679688 73.226562 68.773438 73.226562 76.695312 L 73.226562 92.832031 L 64.199219 92.832031 L 64.199219 78.527344 C 64.199219 75.109375 64.136719 70.722656 59.496094 70.722656 C 54.808594 70.722656 54.082031 74.441406 54.082031 78.28125 L 54.082031 92.832031 L 45.054688 92.832031 L 45.054688 63.410156 "/>
<path style=" stroke:none;fill-rule:nonzero;fill:rgb(10.198975%,9.799194%,9.408569%);fill-opacity:1;" d="M 77.808594 49.421875 L 86.835938 49.421875 L 86.835938 75.371094 L 97.066406 63.394531 L 108.128906 63.394531 L 96.289062 77.019531 L 107.886719 92.84375 L 96.535156 92.84375 L 86.953125 78.296875 L 86.835938 78.296875 L 86.835938 92.84375 L 77.808594 92.84375 L 77.808594 49.421875 "/>
<path style=" stroke:none;fill-rule:nonzero;fill:rgb(10.198975%,9.799194%,9.408569%);fill-opacity:1;" d="M 134.78125 87.738281 C 131.890625 91.457031 127.140625 93.589844 122.445312 93.589844 C 113.414062 93.589844 106.1875 87.492188 106.1875 78.046875 C 106.1875 68.601562 113.414062 62.507812 122.445312 62.507812 C 130.875 62.507812 136.167969 68.601562 136.167969 78.046875 L 136.167969 80.914062 L 115.21875 80.914062 C 115.9375 84.386719 118.527344 86.640625 122.019531 86.640625 C 124.972656 86.640625 126.957031 85.117188 128.464844 83.042969 Z M 127.140625 74.699219 C 127.199219 71.648438 124.851562 69.089844 121.597656 69.089844 C 117.625 69.089844 115.457031 71.832031 115.21875 74.699219 Z M 127.140625 74.699219 "/>
<path style=" stroke:none;fill-rule:nonzero;fill:rgb(10.198975%,9.799194%,9.408569%);fill-opacity:1;" d="M 170.515625 92.828125 L 162.207031 92.828125 L 162.207031 88.925781 L 162.089844 88.925781 C 160.695312 91.058594 157.210938 93.558594 153.113281 93.558594 C 144.441406 93.558594 138.726562 87.222656 138.726562 78.261719 C 138.726562 70.035156 143.78125 62.476562 152.089844 62.476562 C 155.824219 62.476562 159.316406 63.511719 161.363281 66.375 L 161.480469 66.375 L 161.480469 49.421875 L 170.515625 49.421875 Z M 154.976562 70.523438 C 150.464844 70.523438 147.757812 73.570312 147.757812 78.015625 C 147.757812 82.46875 150.464844 85.511719 154.976562 85.511719 C 159.492188 85.511719 162.207031 82.46875 162.207031 78.015625 C 162.207031 73.570312 159.492188 70.523438 154.976562 70.523438 Z M 154.976562 70.523438 "/>
<g clip-path="url(#clip2)" clip-rule="nonzero">
<path style=" stroke:none;fill-rule:nonzero;fill:rgb(0%,37.649536%,52.938843%);fill-opacity:1;" d="M 235.945312 40.304688 L 184.039062 40.304688 C 181.5625 40.304688 179.546875 42.292969 179.546875 44.746094 L 179.546875 97.511719 C 179.546875 99.972656 181.5625 101.960938 184.039062 101.960938 L 235.945312 101.960938 C 238.429688 101.960938 240.457031 99.972656 240.457031 97.511719 L 240.457031 44.75 C 240.457031 42.292969 238.429688 40.304688 235.945312 40.304688 "/>
</g>
<path style=" stroke:none;fill-rule:nonzero;fill:rgb(100%,100%,100%);fill-opacity:1;" d="M 193.09375 48.792969 C 195.984375 48.792969 198.332031 51.167969 198.332031 54.09375 C 198.332031 57.019531 195.984375 59.398438 193.09375 59.398438 C 190.199219 59.398438 187.855469 57.019531 187.855469 54.09375 C 187.855469 51.167969 190.199219 48.792969 193.09375 48.792969 Z M 188.578125 63.421875 L 197.609375 63.421875 L 197.609375 92.84375 L 188.578125 92.84375 Z M 188.578125 63.421875 "/>
<path style=" stroke:none;fill-rule:nonzero;fill:rgb(100%,100%,100%);fill-opacity:1;" d="M 203.273438 63.421875 L 211.941406 63.421875 L 211.941406 67.441406 L 212.066406 67.441406 C 213.269531 65.128906 216.214844 62.6875 220.609375 62.6875 C 229.757812 62.6875 231.445312 68.78125 231.445312 76.703125 L 231.445312 92.84375 L 222.421875 92.84375 L 222.421875 78.535156 C 222.421875 75.121094 222.359375 70.734375 217.726562 70.734375 C 213.023438 70.734375 212.304688 74.449219 212.304688 78.289062 L 212.304688 92.84375 L 203.273438 92.84375 L 203.273438 63.421875 "/>
</g>
</svg>
