<?xml version="1.0" encoding="UTF-8"?>
<svg xmlns="http://www.w3.org/2000/svg" xmlns:xlink="http://www.w3.org/1999/xlink" width="1190.25pt" height="1683.749945pt" viewBox="0 0 1190.25 1683.749945" version="1.2">
<defs>
<clipPath id="clip1">
  <path d="M 670 275 L 1189.5 275 L 1189.5 902 L 670 902 Z M 670 275 "/>
</clipPath>
</defs>
<g id="surface1">
<path style=" stroke:none;fill-rule:nonzero;fill:rgb(97.24884%,60.778809%,48.239136%);fill-opacity:1;" d="M 1129.066406 921.363281 C 1112.9375 929.195312 1112.9375 929.195312 1088.085938 983.074219 C 1084.355469 991.160156 1101.046875 987.621094 1110.164062 971.933594 C 1110.101562 972.035156 1106.597656 976.871094 1106.398438 977.289062 C 1103.15625 983.902344 1099.574219 987.6875 1100.378906 991.472656 C 1101.691406 997.800781 1109.726562 1000.269531 1122.898438 1002.789062 C 1125.058594 1003.207031 1131.601562 999.324219 1133.894531 999.960938 C 1136.210938 1000.601562 1141.867188 996.890625 1144.523438 996.78125 C 1149.167969 996.585938 1148.128906 993.464844 1151.425781 990.558594 C 1153.011719 989.164062 1155.289062 988.140625 1156.5625 986.503906 C 1164.894531 975.816406 1158.863281 960.628906 1156 949.085938 C 1153.777344 940.023438 1150.542969 926.589844 1141.925781 921.222656 C 1138.109375 918.851562 1132.976562 919.453125 1129.066406 921.363281 "/>
<path style=" stroke:none;fill-rule:nonzero;fill:rgb(96.078491%,46.269226%,34.509277%);fill-opacity:1;" d="M 1128.554688 978.1875 C 1129.214844 980.882812 1129.566406 983.457031 1129.058594 986.207031 C 1128.613281 988.527344 1126.777344 990.949219 1127.292969 993.246094 C 1127.386719 993.664062 1128.167969 993.96875 1128.519531 993.726562 C 1130.480469 992.328125 1131.019531 988.71875 1131.359375 986.398438 C 1131.742188 983.773438 1131.105469 981.136719 1130.375 978.625 C 1130.199219 978.03125 1128.402344 977.542969 1128.554688 978.1875 "/>
<path style=" stroke:none;fill-rule:nonzero;fill:rgb(96.078491%,46.269226%,34.509277%);fill-opacity:1;" d="M 1143.179688 978.308594 C 1143.808594 978.09375 1144.421875 977.875 1145.03125 977.667969 C 1144.359375 977.289062 1143.6875 976.921875 1143.023438 976.566406 C 1142.230469 978.914062 1142.695312 981.425781 1141.980469 983.824219 C 1141.328125 986.039062 1140.777344 988.21875 1142.875 989.761719 C 1143.128906 989.949219 1144.742188 990.589844 1144.636719 989.78125 C 1144.34375 987.738281 1144.800781 986.011719 1145.34375 984.050781 C 1145.960938 981.808594 1145.03125 979.6875 1145.296875 977.4375 C 1145.402344 976.519531 1143.765625 976.078125 1143.121094 976.425781 C 1142.617188 976.714844 1142.09375 976.992188 1141.589844 977.269531 C 1140.960938 977.621094 1142.710938 978.476562 1143.179688 978.308594 "/>
<path style=" stroke:none;fill-rule:nonzero;fill:rgb(96.078491%,46.269226%,34.509277%);fill-opacity:1;" d="M 1122.367188 961.613281 C 1122.71875 963.171875 1121.242188 964.480469 1122.097656 965.890625 C 1122.375 966.34375 1123.089844 966.621094 1123.605469 966.472656 C 1125.773438 965.828125 1124.542969 963.234375 1123.847656 961.859375 C 1123.691406 961.527344 1122.238281 961.011719 1122.367188 961.613281 "/>
<path style=" stroke:none;fill-rule:nonzero;fill:rgb(96.078491%,46.269226%,34.509277%);fill-opacity:1;" d="M 1135.992188 960.101562 C 1136.253906 960.316406 1135.539062 962.425781 1135.488281 962.730469 C 1135.304688 963.628906 1135.261719 964.535156 1135.574219 965.414062 C 1135.847656 966.1875 1138.242188 967.597656 1138.714844 966.394531 C 1138.929688 965.828125 1138.5 965.113281 1138.261719 964.613281 C 1138.109375 964.285156 1137.457031 964.039062 1137.125 964.167969 C 1136.601562 964.378906 1135.820312 964.621094 1135.59375 965.179688 C 1136.648438 965.519531 1137.691406 965.835938 1138.746094 966.164062 C 1138.058594 964.1875 1139.3125 960.722656 1136.988281 959.570312 C 1136.472656 959.308594 1135.054688 959.363281 1135.992188 960.101562 "/>
<path style=" stroke:none;fill-rule:nonzero;fill:rgb(96.078491%,46.269226%,34.509277%);fill-opacity:1;" d="M 1149.410156 956.351562 C 1148.558594 957.777344 1149.234375 958.375 1150.613281 959.058594 C 1150.335938 958.683594 1150.054688 958.289062 1149.789062 957.90625 C 1148.921875 959.347656 1149.976562 960.320312 1151.371094 960.769531 C 1152.699219 961.195312 1153.882812 960.453125 1152.285156 959.503906 C 1152.835938 959.824219 1152.660156 959.78125 1152.808594 959.085938 C 1152.964844 958.257812 1151.765625 957.800781 1151.152344 957.617188 C 1151.84375 957.828125 1151.46875 958.21875 1151.660156 957.21875 C 1151.804688 956.390625 1149.839844 955.617188 1149.410156 956.351562 "/>
<path style=" stroke:none;fill-rule:nonzero;fill:rgb(97.24884%,60.778809%,48.239136%);fill-opacity:1;" d="M 1150.363281 863.367188 C 1152.859375 791.082031 1163.230469 739.949219 1150.0625 650.957031 C 1144.714844 614.796875 1155.054688 574.328125 1146.246094 538.527344 C 1140.566406 538.40625 1134.898438 538.378906 1129.222656 538.96875 C 1111.648438 540.792969 1094.007812 543.925781 1076.441406 542.128906 C 1083.328125 659.355469 1082.304688 671.1875 1113.804688 859.164062 C 1115.886719 871.570312 1121.015625 980.894531 1135.785156 966.734375 C 1150.023438 953.101562 1149.820312 879.128906 1150.363281 863.367188 "/>
<path style=" stroke:none;fill-rule:nonzero;fill:rgb(97.24884%,60.778809%,48.239136%);fill-opacity:1;" d="M 702.742188 451.789062 L 670.230469 598.117188 C 670.230469 598.117188 666.367188 660.769531 702.699219 679.867188 C 702.699219 679.867188 736.746094 673.953125 743.566406 621.664062 L 782.320312 485.078125 L 702.742188 451.789062 "/>
<path style=" stroke:none;fill-rule:nonzero;fill:rgb(97.24884%,60.778809%,48.239136%);fill-opacity:1;" d="M 1076.441406 1592.4375 L 1036.050781 1592.4375 L 1036.050781 1485.476562 L 1076.441406 1485.476562 L 1076.441406 1592.4375 "/>
<path style=" stroke:none;fill-rule:nonzero;fill:rgb(97.24884%,60.778809%,48.239136%);fill-opacity:1;" d="M 876.386719 1617.132812 L 836.003906 1617.132812 L 836.003906 1485.476562 L 876.386719 1485.476562 L 876.386719 1617.132812 "/>
<path style=" stroke:none;fill-rule:nonzero;fill:rgb(45.098877%,55.288696%,72.549438%);fill-opacity:1;" d="M 879.90625 1571.832031 C 908.507812 1454.167969 912.566406 1272.890625 912.761719 1250.714844 C 913.570312 1153.722656 935.875 1014.941406 939.367188 917.757812 C 939.367188 1039.394531 963.179688 1079.070312 965.695312 1201.027344 C 966.644531 1247.171875 1019.714844 1516.648438 1025.578125 1571.832031 C 1025.578125 1571.832031 1054.246094 1584.910156 1084.074219 1563.183594 C 1088.710938 1468.808594 1099.480469 1319.03125 1099.453125 1292.707031 C 1099.382812 1239.226562 1099.175781 1181.027344 1099.453125 1127.546875 C 1099.898438 1041.121094 1091.140625 851.644531 1075.292969 721.03125 L 789.300781 721.03125 C 780.484375 781.269531 785.699219 822.714844 784.019531 838.417969 C 777.269531 901.648438 779.511719 972.839844 782.320312 1036.410156 C 786.101562 1122.277344 783.371094 1201.757812 782.320312 1288.277344 C 782.203125 1297.515625 798.839844 1489.820312 822.699219 1576.1875 C 822.699219 1576.1875 863.632812 1588.40625 879.90625 1571.832031 "/>
<path style=" stroke:none;fill-rule:nonzero;fill:rgb(97.24884%,60.778809%,48.239136%);fill-opacity:1;" d="M 885.859375 289.734375 L 965.691406 289.734375 L 965.691406 202.488281 L 885.859375 202.488281 C 885.859375 202.488281 894.371094 271.226562 885.859375 289.734375 "/>
<path style=" stroke:none;fill-rule:nonzero;fill:rgb(96.078491%,46.269226%,34.509277%);fill-opacity:1;" d="M 965.691406 242.046875 L 965.691406 202.488281 L 885.859375 202.488281 C 885.859375 202.488281 888.265625 221.90625 889.242188 242.871094 C 912.226562 253.65625 941.222656 252.054688 965.691406 242.046875 "/>
<path style=" stroke:none;fill-rule:nonzero;fill:rgb(23.919678%,28.62854%,37.649536%);fill-opacity:1;" d="M 876.386719 1587.605469 L 887.285156 1657.019531 L 734.613281 1657.019531 C 736.597656 1639.167969 750.457031 1635.199219 750.457031 1635.199219 L 806.90625 1612.394531 L 829.890625 1583.285156 C 829.890625 1583.285156 833.480469 1576.238281 837.417969 1576.1875 C 837.417969 1576.1875 856.199219 1584.117188 848.160156 1590.230469 C 848.160156 1590.230469 868.472656 1590.363281 876.386719 1587.605469 "/>
<path style=" stroke:none;fill-rule:nonzero;fill:rgb(40.388489%,49.409485%,69.799805%);fill-opacity:1;" d="M 914.113281 796.117188 C 909.476562 821.179688 909.996094 851.304688 911.550781 876.820312 C 912.140625 886.425781 930.667969 881.148438 935.136719 879.285156 C 936.414062 878.765625 936.414062 877.414062 935.136719 876.886719 C 932.597656 875.835938 930.191406 875.277344 927.40625 875.277344 C 919.574219 875.277344 922.207031 867.015625 922.09375 860.570312 C 921.734375 839.375 923.425781 816.972656 919.558594 796.117188 C 919.207031 794.226562 914.460938 794.226562 914.113281 796.117188 "/>
<path style=" stroke:none;fill-rule:nonzero;fill:rgb(40.388489%,49.409485%,69.799805%);fill-opacity:1;" d="M 938.820312 785.546875 C 935.214844 811.953125 938.367188 838.636719 936.222656 865.109375 C 934.105469 891.28125 936.292969 917.691406 936.832031 944.191406 C 936.882812 946.800781 944.335938 946.800781 944.386719 944.191406 C 944.648438 930.738281 944.882812 917.195312 944.300781 903.75 C 943.792969 892.113281 941.207031 881.878906 943.277344 870.15625 C 947.925781 844.046875 945.972656 811.742188 942.40625 785.546875 C 942.226562 784.296875 938.976562 784.296875 938.820312 785.546875 "/>
<path style=" stroke:none;fill-rule:nonzero;fill:rgb(40.388489%,49.409485%,69.799805%);fill-opacity:1;" d="M 850.855469 798.761719 C 847.160156 823.535156 850.925781 847.640625 841.832031 871.714844 C 833.640625 893.367188 815.5625 915.839844 791.226562 917.769531 C 783.9375 918.347656 788.867188 923.960938 794.183594 923.027344 C 795.355469 922.828125 796.507812 922.585938 797.660156 922.339844 C 800.453125 921.738281 800.453125 919.058594 797.660156 918.457031 C 796.507812 918.210938 795.355469 917.976562 794.183594 917.769531 C 793.699219 919.554688 793.203125 921.335938 792.710938 923.125 C 851.472656 919.257812 862.933594 844.847656 856.046875 798.761719 C 855.785156 796.964844 851.128906 796.964844 850.855469 798.761719 "/>
<path style=" stroke:none;fill-rule:nonzero;fill:rgb(40.388489%,49.409485%,69.799805%);fill-opacity:1;" d="M 1015.28125 801.40625 C 1015.683594 833.671875 1021.511719 901.761719 1068.84375 898.515625 C 1070.144531 898.429688 1072.347656 897.800781 1072.984375 896.492188 C 1073.308594 895.820312 1073.628906 895.15625 1073.949219 894.484375 C 1075.257812 891.789062 1069.117188 891.914062 1067.945312 892.226562 C 1060.273438 894.292969 1051.1875 883.988281 1046.226562 879.21875 C 1037.394531 870.730469 1033.335938 859.101562 1030.328125 847.578125 C 1026.242188 831.980469 1025.171875 816.207031 1019.042969 801.152344 C 1018.644531 800.148438 1015.261719 800.128906 1015.28125 801.40625 "/>
<path style=" stroke:none;fill-rule:nonzero;fill:rgb(38.42926%,21.958923%,16.079712%);fill-opacity:1;" d="M 844.785156 114.132812 C 848.832031 127.144531 852.847656 142.21875 860.765625 153.96875 C 869.789062 167.390625 884.382812 169.410156 892.355469 154.125 C 899.847656 139.734375 901.023438 121.351562 899.453125 105.859375 C 898.59375 97.394531 896.5 87.722656 889.136719 81.441406 C 877.648438 71.640625 861.375 73.175781 851.527344 82.984375 C 842.292969 92.195312 841.214844 102.664062 844.785156 114.132812 "/>
<path style=" stroke:none;fill-rule:nonzero;fill:rgb(97.24884%,60.778809%,48.239136%);fill-opacity:1;" d="M 855.984375 136.34375 C 855.660156 151.59375 856.734375 166.90625 859.605469 181.878906 C 862.523438 197.097656 865.925781 225.429688 882.242188 232.933594 C 887.285156 235.253906 891.515625 235.433594 897.523438 235.519531 C 920.488281 235.835938 946.027344 222.476562 961.859375 206.589844 C 991.375 177.003906 997.179688 100.15625 972.296875 68.292969 C 949.582031 39.203125 869.710938 47.160156 861.101562 90.097656 C 858.140625 104.925781 856.304688 120.566406 855.984375 136.34375 "/>
<path style=" stroke:none;fill-rule:nonzero;fill:rgb(44.709778%,25.878906%,18.818665%);fill-opacity:1;" d="M 923.90625 128.515625 C 925.359375 127.464844 928.628906 127.921875 930.371094 127.453125 C 933.648438 126.59375 936.652344 126.714844 940 126.929688 C 945.566406 127.273438 951.308594 128.007812 956.109375 130.921875 C 956.28125 131.09375 956.433594 131.09375 956.589844 130.910156 C 956.917969 130.679688 957.25 130.433594 957.597656 130.203125 C 958.355469 129.667969 957.929688 126.949219 957.617188 126.261719 C 954.976562 120.40625 947.691406 118.566406 941.75 118.363281 C 935.589844 118.148438 926.363281 118.523438 923.503906 125.257812 C 923.316406 125.695312 923.375 128.886719 923.90625 128.515625 "/>
<path style=" stroke:none;fill-rule:nonzero;fill:rgb(44.709778%,25.878906%,18.818665%);fill-opacity:1;" d="M 894.472656 125.101562 C 891.664062 118.871094 883.570312 118.296875 877.722656 118.183594 C 871.246094 118.066406 862.503906 119.53125 859.660156 126.132812 C 859.359375 126.84375 859.105469 129.605469 859.878906 130.117188 C 860.257812 130.363281 860.613281 130.59375 860.992188 130.835938 C 861.0625 130.878906 861.144531 130.917969 861.222656 130.96875 C 865.820312 128.246094 870.679688 127.621094 875.929688 127.023438 C 879.382812 126.621094 882.777344 126.449219 886.195312 127.035156 C 888.101562 127.367188 892.695312 127.308594 894.226562 128.410156 C 894.742188 128.785156 894.65625 125.539062 894.472656 125.101562 "/>
<path style=" stroke:none;fill-rule:nonzero;fill:rgb(44.709778%,25.878906%,18.818665%);fill-opacity:1;" d="M 882.542969 139.992188 C 882.542969 142.59375 880.84375 144.695312 878.761719 144.695312 C 876.6875 144.695312 874.996094 142.59375 874.996094 139.992188 C 874.996094 137.398438 876.6875 135.296875 878.761719 135.296875 C 880.84375 135.296875 882.542969 137.398438 882.542969 139.992188 "/>
<path style=" stroke:none;fill-rule:nonzero;fill:rgb(44.709778%,25.878906%,18.818665%);fill-opacity:1;" d="M 937.316406 140.09375 C 937.316406 142.683594 935.628906 144.792969 933.554688 144.792969 C 931.460938 144.792969 929.78125 142.683594 929.78125 140.09375 C 929.78125 137.5 931.460938 135.398438 933.554688 135.398438 C 935.628906 135.398438 937.316406 137.5 937.316406 140.09375 "/>
<path style=" stroke:none;fill-rule:nonzero;fill:rgb(96.078491%,46.269226%,34.509277%);fill-opacity:1;" d="M 888.636719 235.390625 C 923.476562 237.335938 974.246094 212.363281 979.402344 174.6875 C 979.515625 173.875 977.414062 174.03125 977.09375 174.539062 C 972.867188 181.3125 970.316406 188.855469 966.410156 195.867188 C 960.339844 206.804688 945.046875 214.140625 934.488281 219.789062 C 925.019531 224.851562 915.738281 229.714844 905.078125 231.75 C 899.742188 232.765625 893.421875 232.664062 888.132812 234.484375 C 887.128906 234.835938 888.015625 235.363281 888.636719 235.390625 "/>
<path style=" stroke:none;fill-rule:nonzero;fill:rgb(96.469116%,52.159119%,44.709778%);fill-opacity:1;" d="M 978.535156 137.117188 C 982.160156 133.722656 985.28125 124.265625 991.628906 127.628906 C 992.238281 127.949219 992.972656 127.988281 993.601562 128.261719 C 996.074219 129.308594 996.449219 131.804688 997.3125 133.964844 C 998.800781 137.683594 999.316406 141.882812 999.875 145.808594 C 999.90625 146.015625 1000.429688 146.015625 1000.457031 145.808594 C 1001.414062 138.703125 1000.058594 127.304688 992.71875 123.980469 C 985.226562 120.566406 974.457031 128.753906 974.550781 136.59375 C 974.578125 138.058594 977.828125 137.773438 978.535156 137.117188 "/>
<path style=" stroke:none;fill-rule:nonzero;fill:rgb(96.078491%,46.269226%,34.509277%);fill-opacity:1;" d="M 900.898438 124.144531 C 901.125 139.613281 895.90625 154.003906 894.449219 169.308594 C 893.71875 176.816406 911.074219 178.429688 915.785156 176.566406 C 916.066406 176.464844 916.292969 176.234375 916.328125 175.941406 C 916.371094 175.519531 916.414062 175.105469 916.472656 174.679688 C 916.578125 173.632812 914.042969 173.9375 913.625 174.5 C 909.253906 180.507812 897.679688 168.191406 898.746094 163.316406 C 899.929688 157.894531 901.054688 152.570312 901.75 147.0625 C 902.789062 138.789062 903.292969 132.175781 901.523438 124.144531 C 901.484375 123.945312 900.898438 123.921875 900.898438 124.144531 "/>
<path style=" stroke:none;fill-rule:nonzero;fill:rgb(96.078491%,46.269226%,34.509277%);fill-opacity:1;" d="M 907.882812 194.300781 C 916.34375 198.273438 930.351562 191.988281 935.640625 184.816406 C 935.792969 184.550781 935.792969 184.285156 935.640625 184.023438 C 935.496094 183.773438 935.355469 183.539062 935.207031 183.289062 C 934.472656 182.050781 931.9375 182.277344 930.972656 183.027344 C 924.5625 187.933594 917.765625 193.503906 909.035156 192.9375 C 908.347656 192.890625 906.542969 193.679688 907.882812 194.300781 "/>
<path style=" stroke:none;fill-rule:nonzero;fill:rgb(38.42926%,21.958923%,16.079712%);fill-opacity:1;" d="M 970.246094 127.394531 C 970.441406 131.347656 966.839844 142.347656 967.789062 145.8125 C 968.75 149.28125 972.085938 150.316406 973.191406 147.566406 C 979.019531 142.285156 978.195312 128.15625 987.765625 126.804688 C 998.144531 125.339844 1000.175781 140.589844 999.886719 147.566406 C 1004.792969 137.828125 1010.066406 127.269531 1010.132812 116.933594 C 1010.179688 111.402344 1010.210938 98 1010.132812 88.054688 C 1009.996094 67.515625 994.355469 49.015625 971.230469 50.46875 C 960.679688 51.132812 948.839844 56.769531 944.222656 66.800781 C 939.285156 77.558594 946.148438 86.566406 953.179688 94.257812 C 961.953125 103.859375 969.558594 113.742188 970.246094 127.394531 "/>
<path style=" stroke:none;fill-rule:nonzero;fill:rgb(97.24884%,60.778809%,48.239136%);fill-opacity:1;" d="M 996.632812 127.699219 C 1006.609375 137.757812 1000.300781 166.976562 980.140625 176.46875 C 975.191406 170.90625 975.425781 155.988281 974.851562 148.625 C 974.285156 141.394531 974.09375 134.464844 978.539062 128.375 C 979.90625 126.5 989.289062 120.296875 996.632812 127.699219 "/>
<path style=" stroke:none;fill-rule:nonzero;fill:rgb(96.078491%,46.269226%,34.509277%);fill-opacity:1;" d="M 980.25 147.667969 C 980.066406 149.066406 978.925781 152.019531 980.023438 153.203125 C 980.902344 154.164062 981.84375 154.863281 983.0625 155.292969 C 985.386719 156.101562 987.875 155.074219 989.058594 153.007812 C 990.332031 150.800781 990.644531 147.917969 990.933594 145.433594 C 991.128906 143.625 991.253906 141.609375 989.867188 140.222656 C 989.414062 139.765625 988.117188 139.765625 987.671875 140.222656 C 985.652344 142.238281 986.226562 145.960938 985.851562 148.578125 C 985.617188 150.121094 985.292969 152.085938 984.214844 153.316406 C 983.90625 153.675781 983.839844 153.503906 984.621094 153.457031 C 985.355469 153.40625 984.433594 153.1875 984.039062 152.886719 C 982.722656 151.890625 983.195312 149.152344 983.097656 147.667969 C 983.035156 146.667969 980.390625 146.691406 980.25 147.667969 "/>
<path style=" stroke:none;fill-rule:nonzero;fill:rgb(96.078491%,46.269226%,34.509277%);fill-opacity:1;" d="M 986.035156 140.902344 C 988.738281 137.402344 991.417969 140.902344 992.046875 143.511719 C 992.421875 145.042969 992.335938 146.714844 992.195312 148.253906 C 991.898438 151.523438 989.476562 154.191406 988.449219 157.207031 C 988.195312 157.984375 989.882812 157.957031 990.269531 157.722656 C 995.804688 154.285156 998.5 146.003906 994.800781 140.3125 C 992.507812 136.804688 985.519531 136.324219 983.761719 140.601562 C 983.394531 141.503906 985.625 141.429688 986.035156 140.902344 "/>
<path style=" stroke:none;fill-rule:nonzero;fill:rgb(44.709778%,25.878906%,18.818665%);fill-opacity:1;" d="M 913.324219 76.949219 C 915.914062 74.476562 918.664062 70.917969 922.402344 72.59375 C 924.351562 73.460938 926.140625 77.988281 928.875 79.332031 C 939.558594 84.609375 945.621094 79.839844 953.984375 82.40625 C 955.421875 92.882812 954.746094 87.769531 965.695312 89.460938 C 974.523438 90.824219 982.40625 82.472656 987.921875 74.816406 C 993.5 67.070312 1001.222656 62.378906 997.347656 53.570312 C 993.5 44.808594 984.699219 42.375 977.675781 36.964844 C 970.695312 31.605469 966.339844 23.566406 959.71875 17.773438 C 952.453125 11.425781 943.542969 6.953125 933.972656 5.480469 C 924.164062 3.960938 913.367188 5.296875 904.648438 10.191406 C 895.890625 15.109375 888.554688 16.332031 881.285156 22.863281 C 868.617188 34.214844 852.683594 0.851562 833.25 47.042969 C 830.457031 53.679688 831.667969 76.496094 866.074219 85.667969 C 875.335938 88.140625 878.902344 82.296875 886.792969 80.523438 C 896.464844 78.371094 904.691406 85.171875 913.324219 76.949219 "/>
<path style=" stroke:none;fill-rule:nonzero;fill:rgb(32.548523%,18.03894%,12.939453%);fill-opacity:1;" d="M 853.996094 35.378906 C 850.804688 38.46875 849.007812 41.898438 848.292969 46.304688 C 847.792969 49.3125 849.324219 54.503906 852.261719 56.023438 C 854.683594 57.269531 857.472656 57.054688 860.058594 56.3125 C 864.128906 55.132812 867.867188 54.367188 870.96875 57.695312 C 872.453125 59.277344 874.097656 61.101562 875.234375 62.9375 C 875.519531 63.417969 877.523438 63.554688 877.394531 62.792969 C 876.984375 60.265625 873.808594 57.777344 872.113281 55.972656 C 870.285156 54.039062 868.359375 53.519531 865.769531 53.867188 C 861.1875 54.484375 854.953125 57.480469 851.828125 52.476562 C 848.347656 46.894531 851.214844 40.144531 855.074219 35.597656 C 855.320312 35.3125 854.21875 35.164062 853.996094 35.378906 "/>
<path style=" stroke:none;fill-rule:nonzero;fill:rgb(32.548523%,18.03894%,12.939453%);fill-opacity:1;" d="M 898.882812 56.050781 C 902.847656 58.886719 905.421875 58.164062 909.214844 55.210938 C 913.492188 51.859375 920.828125 41.316406 927.875 51.054688 C 929.105469 52.742188 929.261719 55.304688 930.527344 57.152344 C 932.382812 59.84375 936.84375 60.226562 939.671875 60.695312 C 946.589844 61.851562 954.058594 60.277344 958.640625 54.699219 C 962.78125 49.683594 966.394531 37.335938 959.078125 34.238281 C 958.859375 34.15625 957.363281 34.070312 957.710938 34.644531 C 963.660156 44.195312 955 57.878906 944.625 59.183594 C 938.09375 60 933.285156 56.324219 931.320312 50.585938 C 930.953125 49.554688 928.878906 47.695312 928.023438 47.320312 C 924.808594 45.898438 921.953125 45.410156 918.476562 46.410156 C 912.925781 48.003906 905.652344 58.832031 900.132812 55.570312 C 899.796875 55.367188 898.3125 55.648438 898.882812 56.050781 "/>
<path style=" stroke:none;fill-rule:nonzero;fill:rgb(32.548523%,18.03894%,12.939453%);fill-opacity:1;" d="M 921.101562 21.734375 C 923.082031 18.953125 924.867188 18.492188 928.296875 18.375 C 931.722656 18.253906 934.273438 18.4375 936.417969 21.238281 C 939.484375 25.253906 940.121094 29.9375 937.429688 34.292969 C 938.535156 34.214844 939.640625 34.140625 940.757812 34.066406 C 940.574219 33.839844 940.398438 33.617188 940.226562 33.390625 C 939.914062 32.832031 938.464844 32.832031 938.144531 33.390625 C 937.96875 33.617188 937.792969 33.839844 937.621094 34.066406 C 936.480469 35.324219 940.105469 35.773438 940.941406 34.765625 C 943.363281 31.855469 943.617188 28.128906 941.996094 24.824219 C 940.863281 22.546875 939.226562 18.859375 936.539062 17.964844 C 933.152344 16.851562 929.996094 16.90625 926.449219 17.140625 C 922.867188 17.375 921.285156 18.460938 919.628906 21.53125 C 919.367188 22.042969 920.839844 22.109375 921.101562 21.734375 "/>
<path style=" stroke:none;fill-rule:nonzero;fill:rgb(32.548523%,18.03894%,12.939453%);fill-opacity:1;" d="M 961.917969 66.265625 C 963.058594 71.230469 967.757812 68.941406 971.222656 67.957031 C 973.488281 67.292969 974.988281 64.941406 976.023438 63.011719 C 976.660156 61.84375 977.445312 60.785156 978.027344 59.546875 C 978.332031 58.894531 979.117188 57.132812 979.863281 56.824219 C 980.433594 56.597656 980.441406 55.96875 979.863281 55.734375 C 979.238281 55.484375 978.925781 55.515625 978.304688 55.472656 C 977.765625 55.441406 976.929688 55.609375 976.597656 56.113281 C 975.089844 58.484375 973.53125 60.855469 972.257812 63.390625 C 971.476562 64.917969 970.402344 66.210938 968.6875 66.703125 C 966.695312 67.269531 965.0625 68.753906 963.957031 66.117188 C 963.722656 65.582031 961.78125 65.636719 961.917969 66.265625 "/>
<path style=" stroke:none;fill-rule:nonzero;fill:rgb(32.548523%,18.03894%,12.939453%);fill-opacity:1;" d="M 945.074219 80.066406 C 944.996094 80.222656 944.929688 80.378906 944.859375 80.535156 C 944.597656 81.078125 946.199219 81.246094 946.394531 80.746094 C 947.800781 76.929688 954.929688 85.691406 955.566406 88.078125 C 955.75 88.730469 956.390625 88.878906 956.996094 88.996094 C 962.613281 90.089844 970.558594 89.972656 975.476562 86.492188 C 980.449219 82.960938 992.839844 76.445312 989.570312 69.121094 C 989.34375 68.609375 988.089844 68.703125 987.839844 69.121094 C 983.679688 75.714844 961.578125 97.898438 956.339844 82.703125 C 954.625 77.746094 948.875 77.765625 944.929688 79.808594 C 944.746094 79.910156 944.589844 80.046875 944.675781 80.273438 C 944.746094 80.429688 944.796875 80.585938 944.859375 80.746094 C 945.042969 81.246094 946.632812 81.078125 946.394531 80.535156 C 946.3125 80.378906 946.253906 80.222656 946.175781 80.066406 C 946.042969 79.765625 945.207031 79.765625 945.074219 80.066406 "/>
<path style=" stroke:none;fill-rule:nonzero;fill:rgb(32.548523%,18.03894%,12.939453%);fill-opacity:1;" d="M 901.542969 31.726562 C 894.460938 32.148438 885.171875 36.523438 885.4375 44.898438 C 885.542969 48.804688 887.761719 56.191406 892.710938 55.488281 C 894.769531 55.199219 893.886719 53.699219 892.230469 53.746094 C 893.15625 53.722656 892.1875 53.425781 892.519531 53.691406 C 891.863281 53.179688 891.394531 52.117188 891.011719 51.390625 C 890.378906 50.203125 889.71875 48.773438 889.503906 47.421875 C 889.007812 44.304688 888.652344 42.355469 890.460938 39.515625 C 893.050781 35.460938 896.9375 33.042969 901.726562 32.371094 C 902.488281 32.277344 902.171875 31.679688 901.542969 31.726562 "/>
<path style=" stroke:none;fill-rule:nonzero;fill:rgb(15.689087%,18.03894%,23.919678%);fill-opacity:1;" d="M 887.285156 1664.101562 L 734.613281 1664.101562 L 734.613281 1657.019531 L 887.285156 1657.019531 L 887.285156 1664.101562 "/>
<path style=" stroke:none;fill-rule:nonzero;fill:rgb(100%,100%,100%);fill-opacity:1;" d="M 775.851562 1624.976562 C 776.484375 1626.246094 777.132812 1627.5 777.9375 1628.675781 C 778.648438 1629.703125 779.433594 1630.453125 780.003906 1631.585938 C 781.207031 1633.953125 782.769531 1635.382812 785.566406 1635.085938 C 786.292969 1635.007812 787.09375 1634.730469 787.300781 1633.96875 C 787.308594 1633.925781 787.316406 1633.875 787.34375 1633.824219 C 787.308594 1633.542969 787.179688 1633.324219 786.964844 1633.148438 C 785.617188 1632.199219 785.367188 1630.445312 784.160156 1629.421875 C 783.285156 1628.703125 782.277344 1628.167969 781.421875 1627.394531 C 780.484375 1626.539062 779.660156 1625.535156 778.839844 1624.5625 C 778.292969 1623.921875 775.285156 1623.824219 775.851562 1624.976562 "/>
<path style=" stroke:none;fill-rule:nonzero;fill:rgb(100%,100%,100%);fill-opacity:1;" d="M 788.84375 1620.632812 C 789.179688 1620.894531 789.179688 1622.550781 789.464844 1623.03125 C 790.015625 1623.964844 790.339844 1624.949219 790.945312 1625.867188 C 792.78125 1628.597656 795.417969 1630.464844 798.839844 1630.261719 C 799.472656 1630.226562 803.179688 1629.703125 802.058594 1628.1875 C 801.398438 1627.28125 800.398438 1626.648438 799.59375 1625.867188 C 798.675781 1624.964844 798.066406 1623.78125 797.222656 1622.820312 C 795.621094 1620.980469 793.09375 1619.140625 790.550781 1619.171875 C 790.046875 1619.171875 787.671875 1619.742188 788.84375 1620.632812 "/>
<path style=" stroke:none;fill-rule:nonzero;fill:rgb(100%,100%,100%);fill-opacity:1;" d="M 801.992188 1614.871094 C 802.1875 1614.414062 801.757812 1615.179688 801.980469 1615.570312 C 802.140625 1615.851562 802.324219 1616.128906 802.476562 1616.417969 C 802.976562 1617.328125 803.40625 1618.15625 804 1619.011719 C 804.648438 1619.921875 805.222656 1620.882812 805.898438 1621.773438 C 806.550781 1622.628906 807.570312 1623.25 808.273438 1623.691406 C 809.636719 1624.5625 813.34375 1625.089844 813.875 1622.941406 C 814.519531 1620.398438 811.96875 1617.882812 810.332031 1616.121094 C 808.78125 1614.4375 803.289062 1611.734375 801.992188 1614.871094 "/>
<path style=" stroke:none;fill-rule:nonzero;fill:rgb(100%,100%,100%);fill-opacity:1;" d="M 812.480469 1606.273438 C 813.292969 1607.816406 813.988281 1609.65625 815.101562 1611.007812 C 816.828125 1613.121094 818.078125 1614.203125 820.851562 1614.734375 C 822.175781 1614.984375 825.367188 1614.789062 825.582031 1612.964844 C 825.753906 1611.535156 824.140625 1610.320312 823.265625 1609.324219 C 821.78125 1607.632812 819.117188 1606.5 817.226562 1605.289062 C 816.335938 1604.71875 815.332031 1604.554688 814.292969 1604.699219 C 813.644531 1604.789062 811.933594 1605.261719 812.480469 1606.273438 "/>
<path style=" stroke:none;fill-rule:nonzero;fill:rgb(100%,100%,100%);fill-opacity:1;" d="M 821.980469 1595.691406 C 822.574219 1596.101562 822.992188 1596.878906 823.371094 1597.46875 C 823.910156 1598.28125 824.628906 1598.839844 825.367188 1599.460938 C 826.878906 1600.714844 828.246094 1602.066406 830.125 1602.773438 C 832.125 1603.527344 834.449219 1603.203125 836.316406 1602.171875 C 837.621094 1601.457031 838.949219 1599.929688 837.230469 1598.855469 C 833.429688 1596.507812 829.578125 1593.726562 824.988281 1593.257812 C 824.027344 1593.152344 820.113281 1594.367188 821.980469 1595.691406 "/>
<path style=" stroke:none;fill-rule:nonzero;fill:rgb(23.919678%,28.62854%,37.649536%);fill-opacity:1;" d="M 1038.414062 1587.796875 L 1035.703125 1598.726562 L 1040.25 1660.847656 C 1040.25 1660.847656 1055.863281 1683.414062 1087.867188 1674.097656 C 1087.867188 1674.097656 1111.46875 1660.621094 1100.890625 1636.160156 L 1082.855469 1592.167969 L 1078.414062 1582.230469 L 1070.386719 1571.832031 L 1044.46875 1575.433594 L 1038.414062 1587.796875 "/>
<path style=" stroke:none;fill-rule:nonzero;fill:rgb(100%,100%,100%);fill-opacity:1;" d="M 1053.710938 1609.613281 C 1057.675781 1608.839844 1061.34375 1606.78125 1065.277344 1606.105469 C 1068.996094 1605.476562 1072.121094 1606.125 1075.570312 1604.1875 C 1078.203125 1602.714844 1074.882812 1601.351562 1073.464844 1601.308594 C 1069.769531 1601.175781 1065.890625 1601.605469 1062.277344 1602.347656 C 1058.484375 1603.140625 1055.246094 1605.445312 1051.847656 1607.128906 C 1049.101562 1608.496094 1051.75 1610.007812 1053.710938 1609.613281 "/>
<path style=" stroke:none;fill-rule:nonzero;fill:rgb(100%,100%,100%);fill-opacity:1;" d="M 1055.230469 1624.015625 C 1061.71875 1620.929688 1068.246094 1620.292969 1075.269531 1619.496094 C 1079.640625 1619 1079.109375 1615.460938 1074.78125 1615.945312 C 1066.695312 1616.863281 1058.679688 1617.4375 1052.363281 1623.074219 C 1051.039062 1624.242188 1054.660156 1624.285156 1055.230469 1624.015625 "/>
<path style=" stroke:none;fill-rule:nonzero;fill:rgb(100%,100%,100%);fill-opacity:1;" d="M 1058.53125 1638.234375 C 1064.382812 1635.804688 1070.882812 1633.890625 1077.261719 1633.847656 C 1081.070312 1633.824219 1084.398438 1629.679688 1078.875 1629.71875 C 1070.894531 1629.773438 1061.34375 1631.195312 1055.671875 1637.292969 C 1054.402344 1638.644531 1058 1638.453125 1058.53125 1638.234375 "/>
<path style=" stroke:none;fill-rule:nonzero;fill:rgb(15.689087%,18.03894%,23.919678%);fill-opacity:1;" d="M 1044.746094 1654.59375 C 1052.066406 1663.359375 1063.136719 1667.582031 1074.507812 1665.777344 C 1087.570312 1663.703125 1094.300781 1658.210938 1097.050781 1644.902344 C 1097.300781 1643.707031 1094.558594 1644.125 1094.167969 1644.90625 C 1092.480469 1648.347656 1090.0625 1658.066406 1086.125 1659.625 C 1082.621094 1661.023438 1079.316406 1662.347656 1075.613281 1663.246094 C 1064.984375 1665.839844 1053.871094 1661.726562 1046.132812 1654.199219 C 1045.800781 1653.886719 1044.390625 1654.164062 1044.746094 1654.59375 "/>
<path style=" stroke:none;fill-rule:nonzero;fill:rgb(15.689087%,18.03894%,23.919678%);fill-opacity:1;" d="M 1045.417969 1603.839844 C 1045.792969 1609.335938 1047.03125 1614.585938 1047.945312 1620 C 1049.058594 1626.625 1048.125 1632.53125 1051.464844 1638.644531 C 1051.671875 1639.035156 1052.902344 1638.863281 1053 1638.425781 C 1055.492188 1627.503906 1052.246094 1613.082031 1046.375 1603.636719 C 1046.21875 1603.402344 1045.394531 1603.515625 1045.417969 1603.839844 "/>
<path style=" stroke:none;fill-rule:nonzero;fill:rgb(15.689087%,18.03894%,23.919678%);fill-opacity:1;" d="M 1072.566406 1595.054688 C 1074.105469 1602.390625 1075.753906 1609.585938 1076.820312 1617.03125 C 1077.742188 1623.625 1077.792969 1630.417969 1081.957031 1635.914062 C 1082.273438 1636.316406 1083.59375 1636.210938 1083.734375 1635.671875 C 1084.386719 1633.0625 1084.046875 1631.761719 1083.171875 1629.121094 C 1081.851562 1625.167969 1082.148438 1620.464844 1081.574219 1616.367188 C 1080.476562 1608.523438 1079.03125 1601.5625 1075.667969 1594.40625 C 1075.273438 1593.578125 1072.347656 1594.042969 1072.566406 1595.054688 "/>
<g clip-path="url(#clip1)" clip-rule="nonzero">
<path style=" stroke:none;fill-rule:nonzero;fill:rgb(36.859131%,79.219055%,88.62915%);fill-opacity:1;" d="M 1075.105469 489.890625 C 1076.015625 501.929688 1076.976562 513.96875 1077.859375 526.011719 C 1081.664062 578.304688 1086.179688 630.546875 1089.695312 682.855469 C 1091.292969 706.75 1094.820312 730.738281 1095.898438 754.621094 C 1096.859375 775.957031 1118.332031 807.382812 1094.683594 822.003906 C 1080.832031 830.578125 1061.460938 834.246094 1045.632812 836.789062 C 1012.28125 842.167969 979.269531 826.164062 947.003906 839.480469 C 932.308594 845.542969 917.3125 854.644531 904.992188 864.683594 C 892.625 874.769531 883.636719 890.96875 868.941406 897.886719 C 827.007812 917.632812 835.914062 854.902344 832.027344 833.128906 C 827.492188 807.785156 809.453125 796.011719 787.507812 786.6875 C 773.628906 780.785156 763.097656 778.050781 764.195312 762.105469 C 767.9375 707.851562 775.109375 653.121094 779.539062 598.671875 C 782.773438 558.917969 786.621094 519.191406 790.152344 479.449219 L 787.554688 565.824219 L 670.121094 498.625 L 717.574219 378.972656 C 731.441406 345.257812 758.382812 328.066406 758.382812 328.066406 L 889.324219 275.175781 C 889.324219 275.175781 922.789062 288.398438 965.699219 275.175781 L 1066.4375 317.480469 C 1066.4375 317.480469 1120.195312 334.683594 1129.433594 363.769531 L 1190.171875 534.671875 L 1080.121094 555.257812 L 1075.105469 489.890625 "/>
</g>
<path style=" stroke:none;fill-rule:nonzero;fill:rgb(97.24884%,60.778809%,48.239136%);fill-opacity:1;" d="M 834.644531 841.199219 C 834.644531 841.199219 779.710938 665.183594 739.160156 575.390625 C 739.160156 575.390625 683.601562 585.929688 680.378906 632.183594 C 680.378906 632.183594 676.515625 655.984375 708.203125 700.933594 L 803.136719 846.6875 L 801.957031 889.285156 C 792.941406 893.1875 857.839844 855.945312 834.644531 841.199219 "/>
<path style=" stroke:none;fill-rule:nonzero;fill:rgb(31.369019%,67.449951%,75.289917%);fill-opacity:1;" d="M 816.066406 309.566406 C 809.882812 349.484375 806.054688 389.828125 799.625 429.691406 C 796.28125 450.414062 794.078125 471.304688 790.625 492.023438 C 789.144531 500.894531 788.457031 509.867188 787.464844 518.796875 C 786.359375 528.628906 782.671875 535.703125 783.132812 545.558594 C 783.242188 547.65625 788.734375 547.574219 789.078125 545.558594 C 795.582031 507.132812 800.273438 468.398438 805.980469 429.691406 C 808.972656 409.390625 811.125 388.863281 813.558594 368.472656 C 815.84375 349.347656 821.210938 328.78125 819.53125 309.566406 C 819.425781 308.347656 816.253906 308.375 816.066406 309.566406 "/>
<path style=" stroke:none;fill-rule:nonzero;fill:rgb(31.369019%,67.449951%,75.289917%);fill-opacity:1;" d="M 1049.789062 313.527344 C 1060.472656 356.980469 1060.277344 400.585938 1066.371094 444.585938 C 1069.097656 464.226562 1069.019531 484.121094 1072.3125 503.710938 C 1075.308594 521.632812 1071.832031 543.132812 1079.683594 559.65625 C 1080.121094 560.582031 1082.605469 560.464844 1082.835938 559.449219 C 1086.757812 543.167969 1082.996094 520.035156 1079.894531 503.710938 C 1075.816406 482.238281 1076.15625 460.113281 1073.1875 438.472656 C 1067.367188 396.257812 1069.773438 353.417969 1053.203125 313.300781 C 1052.8125 312.375 1049.542969 312.507812 1049.789062 313.527344 "/>
<path style=" stroke:none;fill-rule:nonzero;fill:rgb(31.369019%,67.449951%,75.289917%);fill-opacity:1;" d="M 876.53125 283.035156 C 875.296875 282.789062 878.164062 286.171875 878.789062 286.527344 C 883.039062 289 887.03125 291.425781 891.554688 293.351562 C 900.285156 297.082031 911.269531 296.601562 920.554688 297.550781 C 937.921875 299.328125 962.910156 299.027344 976.292969 285.78125 C 979.738281 282.359375 969.347656 280.714844 966.988281 283.105469 C 952.714844 297.550781 911.394531 296.042969 892.722656 288.789062 C 887.261719 286.671875 882.78125 279.355469 876.53125 280.570312 C 874.226562 281.015625 874.226562 282.585938 876.53125 283.035156 "/>
<path style=" stroke:none;fill-rule:nonzero;fill:rgb(31.369019%,67.449951%,75.289917%);fill-opacity:1;" d="M 968.285156 441.773438 C 968.460938 449.210938 967.015625 456.636719 966.394531 464.0625 C 965.742188 471.738281 967.015625 479.414062 966.769531 487.125 C 966.515625 495.160156 965.417969 504.25 974.90625 506.980469 C 986.824219 510.398438 1001.097656 507.078125 1013.234375 506.582031 C 1021.050781 506.257812 1032.253906 504.929688 1037.324219 498.222656 C 1040.164062 494.457031 1038.597656 487.011719 1038.613281 482.738281 C 1038.65625 475.140625 1038.683594 467.542969 1038.71875 459.941406 C 1038.753906 452.40625 1040.585938 436.929688 1031.164062 434.21875 C 1022.40625 431.707031 1012.910156 434.09375 1004.328125 435.988281 C 992.6875 438.582031 977.296875 435.789062 966.507812 440.882812 C 965.851562 441.1875 965.457031 441.867188 966.097656 442.417969 C 969.550781 445.3125 972.78125 445.027344 977.234375 445.308594 C 984.578125 445.75 994.335938 444.722656 1001.679688 442.949219 C 1005.957031 441.917969 1026.058594 434.183594 1026.230469 444.082031 C 1026.398438 454.082031 1027.375 464.132812 1027.417969 474.277344 C 1027.453125 479.160156 1029.8125 495.421875 1025.1875 498.046875 C 1015.195312 503.753906 996.636719 502.578125 985.5 502.742188 C 971.117188 502.949219 975.34375 482.476562 973.6875 472.585938 C 971.960938 462.335938 973.0625 452.109375 971.011719 441.773438 C 970.839844 440.867188 968.269531 440.828125 968.285156 441.773438 "/>
<path style=" stroke:none;fill-rule:nonzero;fill:rgb(96.078491%,46.269226%,34.509277%);fill-opacity:1;" d="M 719.980469 560.242188 C 722.070312 568.148438 728.910156 575.433594 732.371094 583.015625 C 737.558594 594.382812 745.441406 604.695312 750.851562 616.070312 C 763.226562 642.171875 772.625 669.335938 781.070312 696.957031 C 794.175781 739.859375 808.761719 784.304688 827.71875 825.0625 C 828.035156 825.726562 830.449219 825.699219 830.265625 824.898438 C 821.464844 783.230469 801.03125 743.65625 788.539062 703.011719 C 780.066406 675.445312 770.707031 648.085938 758.472656 621.949219 C 748.257812 600.089844 734.648438 580.714844 722.777344 560.058594 C 722.40625 559.402344 719.746094 559.359375 719.980469 560.242188 "/>
<path style=" stroke:none;fill-rule:nonzero;fill:rgb(31.369019%,67.449951%,75.289917%);fill-opacity:1;" d="M 815.9375 731.710938 C 831.09375 744.449219 848.730469 760.332031 856.699219 778.355469 C 861.636719 789.523438 860.085938 800.878906 862.816406 812.457031 C 865.046875 821.90625 862.890625 832.191406 867.449219 840.746094 C 868.65625 843 876.261719 842.832031 875.339844 839.683594 C 869.40625 819.402344 873.285156 797.183594 865.085938 777.21875 C 857.007812 757.523438 837.3125 742.011719 819.894531 730.570312 C 818.890625 729.914062 814.292969 730.324219 815.9375 731.710938 "/>
<path style=" stroke:none;fill-rule:nonzero;fill:rgb(31.369019%,67.449951%,75.289917%);fill-opacity:1;" d="M 838.261719 710.042969 C 857.546875 719.855469 882.050781 726.449219 903.472656 728.390625 C 915.253906 729.441406 927.121094 728.964844 938.914062 729.660156 C 944.875 730 950.199219 729.984375 954.476562 725.726562 C 955.75 724.46875 952.734375 724.042969 952.035156 724.167969 C 915.597656 730.386719 874.90625 721.199219 840.738281 708.464844 C 839.753906 708.097656 836.273438 709.019531 838.261719 710.042969 "/>
<path style=" stroke:none;fill-rule:nonzero;fill:rgb(31.369019%,67.449951%,75.289917%);fill-opacity:1;" d="M 986.867188 797.277344 C 1002.316406 806.953125 1021.101562 811.890625 1039.179688 809.027344 C 1051.882812 807.015625 1073.132812 800.140625 1073.8125 784.691406 C 1073.882812 782.910156 1069.890625 783.492188 1069.1875 784.382812 C 1048.851562 810.03125 1017.640625 811.515625 989.667969 795.898438 C 988.613281 795.316406 984.925781 796.066406 986.867188 797.277344 "/>
<path style=" stroke:none;fill-rule:nonzero;fill:rgb(31.369019%,67.449951%,75.289917%);fill-opacity:1;" d="M 1026.023438 568.519531 C 1028.933594 585.003906 1029.699219 603.160156 1030.722656 619.9375 C 1031.878906 639.039062 1036.460938 663.386719 1030.753906 681.925781 C 1030.511719 682.730469 1030.917969 683.183594 1031.625 683.546875 C 1032.308594 683.898438 1032.976562 684.246094 1033.65625 684.59375 C 1034.484375 685.03125 1040.03125 685.136719 1038.726562 683.15625 C 1038.335938 682.546875 1037.925781 681.933594 1037.523438 681.320312 C 1036.921875 680.410156 1034.675781 680.410156 1034.066406 681.320312 C 1033.671875 681.933594 1033.273438 682.546875 1032.871094 683.15625 C 1034.71875 683.03125 1036.566406 682.910156 1038.414062 682.789062 C 1036.722656 681.304688 1039.078125 666.675781 1039.066406 664.742188 C 1038.976562 651.777344 1037.289062 638.972656 1036.808594 626.03125 C 1036.121094 607.488281 1035.078125 586.078125 1029.667969 568.273438 C 1029.359375 567.242188 1025.824219 567.394531 1026.023438 568.519531 "/>
</g>
</svg>
