<?xml version="1.0" encoding="UTF-8"?>
<svg xmlns="http://www.w3.org/2000/svg" xmlns:xlink="http://www.w3.org/1999/xlink" width="1190.25pt" height="1683.749945pt" viewBox="0 0 1190.25 1683.749945" version="1.2">
<defs>
<clipPath id="clip1">
  <path d="M 514 606 L 676.890625 606 L 676.890625 803 L 514 803 Z M 514 606 "/>
</clipPath>
</defs>
<g id="surface1">
<path style=" stroke:none;fill-rule:nonzero;fill:rgb(97.24884%,60.778809%,48.239136%);fill-opacity:1;" d="M 657.84375 808.523438 C 652.8125 810.96875 652.8125 810.96875 645.054688 827.777344 C 643.890625 830.300781 649.097656 829.195312 651.945312 824.300781 C 651.925781 824.332031 650.832031 825.839844 650.769531 825.972656 C 649.757812 828.035156 648.640625 829.214844 648.890625 830.398438 C 649.300781 832.371094 651.808594 833.140625 655.917969 833.925781 C 656.59375 834.058594 658.636719 832.847656 659.351562 833.042969 C 660.074219 833.242188 661.839844 832.085938 662.667969 832.050781 C 664.117188 831.992188 663.792969 831.015625 664.824219 830.109375 C 665.316406 829.675781 666.03125 829.355469 666.425781 828.847656 C 669.027344 825.511719 667.144531 820.773438 666.25 817.171875 C 665.558594 814.347656 664.546875 810.15625 661.859375 808.480469 C 660.667969 807.742188 659.066406 807.929688 657.84375 808.523438 "/>
<path style=" stroke:none;fill-rule:nonzero;fill:rgb(96.078491%,46.269226%,34.509277%);fill-opacity:1;" d="M 657.683594 826.25 C 657.890625 827.09375 658 827.894531 657.839844 828.753906 C 657.703125 829.476562 657.128906 830.234375 657.289062 830.949219 C 657.320312 831.082031 657.566406 831.175781 657.675781 831.097656 C 658.285156 830.664062 658.453125 829.535156 658.558594 828.8125 C 658.679688 827.996094 658.480469 827.171875 658.253906 826.386719 C 658.199219 826.203125 657.636719 826.050781 657.683594 826.25 "/>
<path style=" stroke:none;fill-rule:nonzero;fill:rgb(96.078491%,46.269226%,34.509277%);fill-opacity:1;" d="M 662.25 826.289062 C 662.445312 826.222656 662.636719 826.152344 662.828125 826.089844 C 662.617188 825.972656 662.410156 825.859375 662.203125 825.746094 C 661.953125 826.476562 662.097656 827.261719 661.875 828.011719 C 661.671875 828.699219 661.5 829.382812 662.15625 829.863281 C 662.234375 829.921875 662.738281 830.121094 662.703125 829.867188 C 662.613281 829.230469 662.753906 828.691406 662.925781 828.082031 C 663.117188 827.382812 662.828125 826.71875 662.910156 826.019531 C 662.945312 825.730469 662.433594 825.59375 662.230469 825.703125 C 662.074219 825.792969 661.910156 825.878906 661.753906 825.964844 C 661.554688 826.074219 662.105469 826.34375 662.25 826.289062 "/>
<path style=" stroke:none;fill-rule:nonzero;fill:rgb(96.078491%,46.269226%,34.509277%);fill-opacity:1;" d="M 655.753906 821.082031 C 655.863281 821.566406 655.402344 821.976562 655.667969 822.414062 C 655.757812 822.558594 655.980469 822.644531 656.140625 822.597656 C 656.816406 822.394531 656.433594 821.585938 656.214844 821.15625 C 656.167969 821.054688 655.714844 820.894531 655.753906 821.082031 "/>
<path style=" stroke:none;fill-rule:nonzero;fill:rgb(96.078491%,46.269226%,34.509277%);fill-opacity:1;" d="M 660.007812 820.609375 C 660.089844 820.675781 659.867188 821.335938 659.847656 821.429688 C 659.792969 821.710938 659.777344 821.992188 659.875 822.269531 C 659.960938 822.507812 660.707031 822.949219 660.855469 822.574219 C 660.921875 822.394531 660.789062 822.171875 660.714844 822.019531 C 660.667969 821.914062 660.464844 821.839844 660.359375 821.878906 C 660.195312 821.945312 659.953125 822.019531 659.882812 822.195312 C 660.210938 822.300781 660.535156 822.398438 660.867188 822.5 C 660.652344 821.882812 661.042969 820.804688 660.316406 820.445312 C 660.15625 820.363281 659.714844 820.378906 660.007812 820.609375 "/>
<path style=" stroke:none;fill-rule:nonzero;fill:rgb(96.078491%,46.269226%,34.509277%);fill-opacity:1;" d="M 664.195312 819.441406 C 663.929688 819.882812 664.140625 820.070312 664.570312 820.285156 C 664.484375 820.167969 664.394531 820.042969 664.3125 819.925781 C 664.042969 820.375 664.371094 820.679688 664.804688 820.816406 C 665.21875 820.949219 665.589844 820.71875 665.089844 820.421875 C 665.265625 820.523438 665.207031 820.511719 665.253906 820.292969 C 665.304688 820.035156 664.929688 819.890625 664.738281 819.835938 C 664.953125 819.898438 664.835938 820.023438 664.894531 819.710938 C 664.941406 819.453125 664.328125 819.210938 664.195312 819.441406 "/>
<path style=" stroke:none;fill-rule:nonzero;fill:rgb(97.24884%,60.778809%,48.239136%);fill-opacity:1;" d="M 664.492188 790.433594 C 665.269531 767.882812 668.507812 751.929688 664.398438 724.171875 C 662.730469 712.890625 665.957031 700.265625 663.207031 689.097656 C 661.433594 689.058594 659.664062 689.050781 657.894531 689.234375 C 652.410156 689.804688 646.902344 690.78125 641.417969 690.21875 C 643.566406 726.789062 643.25 730.480469 653.082031 789.121094 C 653.730469 792.992188 655.332031 827.097656 659.941406 822.679688 C 664.386719 818.425781 664.324219 795.351562 664.492188 790.433594 "/>
<path style=" stroke:none;fill-rule:nonzero;fill:rgb(97.24884%,60.778809%,48.239136%);fill-opacity:1;" d="M 524.78125 662.039062 L 514.632812 707.6875 C 514.632812 707.6875 513.425781 727.230469 524.765625 733.1875 C 524.765625 733.1875 535.394531 731.34375 537.523438 715.03125 L 549.617188 672.421875 L 524.78125 662.039062 "/>
<path style=" stroke:none;fill-rule:nonzero;fill:rgb(97.24884%,60.778809%,48.239136%);fill-opacity:1;" d="M 641.417969 1017.871094 L 628.8125 1017.871094 L 628.8125 984.503906 L 641.417969 984.503906 L 641.417969 1017.871094 "/>
<path style=" stroke:none;fill-rule:nonzero;fill:rgb(97.24884%,60.778809%,48.239136%);fill-opacity:1;" d="M 578.976562 1025.574219 L 566.375 1025.574219 L 566.375 984.503906 L 578.976562 984.503906 L 578.976562 1025.574219 "/>
<path style=" stroke:none;fill-rule:nonzero;fill:rgb(45.098877%,55.288696%,72.549438%);fill-opacity:1;" d="M 580.074219 1011.441406 C 589.003906 974.738281 590.269531 918.1875 590.332031 911.269531 C 590.582031 881.011719 597.542969 837.71875 598.636719 807.402344 C 598.636719 845.34375 606.066406 857.722656 606.851562 895.765625 C 607.148438 910.164062 623.714844 994.226562 625.542969 1011.441406 C 625.542969 1011.441406 634.492188 1015.523438 643.800781 1008.746094 C 645.25 979.304688 648.609375 932.578125 648.601562 924.367188 C 648.578125 907.683594 648.515625 889.53125 648.601562 872.84375 C 648.742188 845.882812 646.007812 786.777344 641.0625 746.03125 L 551.796875 746.03125 C 549.042969 764.820312 550.671875 777.75 550.148438 782.648438 C 548.042969 802.375 548.742188 824.582031 549.617188 844.414062 C 550.796875 871.203125 549.945312 895.996094 549.617188 922.988281 C 549.582031 925.867188 554.773438 985.859375 562.21875 1012.800781 C 562.21875 1012.800781 574.996094 1016.613281 580.074219 1011.441406 "/>
<path style=" stroke:none;fill-rule:nonzero;fill:rgb(97.24884%,60.778809%,48.239136%);fill-opacity:1;" d="M 581.933594 611.484375 L 606.851562 611.484375 L 606.851562 584.265625 L 581.933594 584.265625 C 581.933594 584.265625 584.589844 605.710938 581.933594 611.484375 "/>
<path style=" stroke:none;fill-rule:nonzero;fill:rgb(96.078491%,46.269226%,34.509277%);fill-opacity:1;" d="M 606.851562 596.609375 L 606.851562 584.265625 L 581.933594 584.265625 C 581.933594 584.265625 582.6875 590.324219 582.988281 596.863281 C 590.164062 600.230469 599.214844 599.730469 606.851562 596.609375 "/>
<path style=" stroke:none;fill-rule:nonzero;fill:rgb(23.919678%,28.62854%,37.649536%);fill-opacity:1;" d="M 578.976562 1016.363281 L 582.378906 1038.019531 L 534.726562 1038.019531 C 535.347656 1032.449219 539.671875 1031.210938 539.671875 1031.210938 L 557.292969 1024.097656 L 564.464844 1015.015625 C 564.464844 1015.015625 565.585938 1012.816406 566.816406 1012.800781 C 566.816406 1012.800781 572.675781 1015.273438 570.167969 1017.183594 C 570.167969 1017.183594 576.507812 1017.222656 578.976562 1016.363281 "/>
<path style=" stroke:none;fill-rule:nonzero;fill:rgb(40.388489%,49.409485%,69.799805%);fill-opacity:1;" d="M 590.753906 769.453125 C 589.304688 777.273438 589.46875 786.667969 589.953125 794.628906 C 590.136719 797.625 595.917969 795.980469 597.3125 795.398438 C 597.714844 795.238281 597.714844 794.816406 597.3125 794.652344 C 596.523438 794.324219 595.773438 794.148438 594.902344 794.148438 C 592.457031 794.148438 593.277344 791.570312 593.242188 789.558594 C 593.132812 782.949219 593.660156 775.960938 592.453125 769.453125 C 592.34375 768.863281 590.859375 768.863281 590.753906 769.453125 "/>
<path style=" stroke:none;fill-rule:nonzero;fill:rgb(40.388489%,49.409485%,69.799805%);fill-opacity:1;" d="M 598.464844 766.15625 C 597.339844 774.394531 598.324219 782.71875 597.652344 790.976562 C 596.992188 799.140625 597.675781 807.378906 597.84375 815.648438 C 597.859375 816.460938 600.1875 816.460938 600.203125 815.648438 C 600.285156 811.449219 600.355469 807.222656 600.175781 803.03125 C 600.015625 799.402344 599.210938 796.207031 599.855469 792.550781 C 601.304688 784.40625 600.695312 774.328125 599.585938 766.15625 C 599.527344 765.765625 598.511719 765.765625 598.464844 766.15625 "/>
<path style=" stroke:none;fill-rule:nonzero;fill:rgb(40.388489%,49.409485%,69.799805%);fill-opacity:1;" d="M 571.007812 770.277344 C 569.855469 778.007812 571.03125 785.527344 568.191406 793.035156 C 565.636719 799.792969 559.992188 806.800781 552.398438 807.402344 C 550.121094 807.582031 551.660156 809.335938 553.320312 809.042969 C 553.6875 808.980469 554.046875 808.90625 554.40625 808.828125 C 555.277344 808.640625 555.277344 807.804688 554.40625 807.617188 C 554.046875 807.542969 553.6875 807.46875 553.320312 807.402344 C 553.167969 807.960938 553.015625 808.515625 552.859375 809.074219 C 571.203125 807.867188 574.777344 784.65625 572.628906 770.277344 C 572.546875 769.71875 571.09375 769.71875 571.007812 770.277344 "/>
<path style=" stroke:none;fill-rule:nonzero;fill:rgb(40.388489%,49.409485%,69.799805%);fill-opacity:1;" d="M 622.328125 771.101562 C 622.453125 781.167969 624.273438 802.410156 639.046875 801.398438 C 639.453125 801.371094 640.140625 801.175781 640.339844 800.765625 C 640.441406 800.558594 640.542969 800.351562 640.640625 800.140625 C 641.050781 799.300781 639.132812 799.335938 638.769531 799.4375 C 636.371094 800.082031 633.535156 796.867188 631.988281 795.378906 C 629.230469 792.730469 627.964844 789.101562 627.027344 785.507812 C 625.75 780.640625 625.417969 775.722656 623.503906 771.023438 C 623.378906 770.710938 622.324219 770.707031 622.328125 771.101562 "/>
<path style=" stroke:none;fill-rule:nonzero;fill:rgb(38.42926%,21.958923%,16.079712%);fill-opacity:1;" d="M 569.113281 556.703125 C 570.378906 560.761719 571.632812 565.464844 574.101562 569.132812 C 576.917969 573.320312 581.472656 573.949219 583.960938 569.179688 C 586.300781 564.691406 586.667969 558.957031 586.175781 554.125 C 585.910156 551.484375 585.253906 548.464844 582.957031 546.507812 C 579.371094 543.449219 574.292969 543.925781 571.21875 546.988281 C 568.335938 549.859375 568 553.128906 569.113281 556.703125 "/>
<path style=" stroke:none;fill-rule:nonzero;fill:rgb(97.24884%,60.778809%,48.239136%);fill-opacity:1;" d="M 572.609375 563.632812 C 572.507812 568.390625 572.84375 573.167969 573.738281 577.839844 C 574.652344 582.585938 575.714844 591.425781 580.804688 593.765625 C 582.378906 594.488281 583.699219 594.546875 585.574219 594.570312 C 592.742188 594.671875 600.714844 590.503906 605.65625 585.546875 C 614.867188 576.316406 616.679688 552.34375 608.914062 542.40625 C 601.824219 533.328125 576.894531 535.8125 574.207031 549.207031 C 573.28125 553.832031 572.710938 558.710938 572.609375 563.632812 "/>
<path style=" stroke:none;fill-rule:nonzero;fill:rgb(44.709778%,25.878906%,18.818665%);fill-opacity:1;" d="M 593.808594 561.191406 C 594.261719 560.863281 595.285156 561.003906 595.828125 560.859375 C 596.851562 560.59375 597.789062 560.628906 598.832031 560.695312 C 600.570312 560.804688 602.363281 561.03125 603.859375 561.941406 C 603.914062 561.996094 603.960938 561.996094 604.011719 561.9375 C 604.113281 561.867188 604.21875 561.789062 604.324219 561.71875 C 604.5625 561.550781 604.429688 560.703125 604.332031 560.488281 C 603.507812 558.660156 601.234375 558.085938 599.378906 558.023438 C 597.457031 557.957031 594.578125 558.074219 593.683594 560.175781 C 593.625 560.3125 593.644531 561.308594 593.808594 561.191406 "/>
<path style=" stroke:none;fill-rule:nonzero;fill:rgb(44.709778%,25.878906%,18.818665%);fill-opacity:1;" d="M 584.621094 560.125 C 583.746094 558.183594 581.21875 558.003906 579.394531 557.96875 C 577.375 557.929688 574.644531 558.386719 573.757812 560.449219 C 573.664062 560.667969 573.582031 561.53125 573.824219 561.691406 C 573.945312 561.769531 574.054688 561.839844 574.171875 561.914062 C 574.195312 561.929688 574.222656 561.941406 574.246094 561.957031 C 575.679688 561.109375 577.195312 560.910156 578.835938 560.726562 C 579.914062 560.601562 580.972656 560.546875 582.039062 560.730469 C 582.632812 560.832031 584.066406 560.8125 584.546875 561.160156 C 584.707031 561.277344 584.679688 560.261719 584.621094 560.125 "/>
<path style=" stroke:none;fill-rule:nonzero;fill:rgb(44.709778%,25.878906%,18.818665%);fill-opacity:1;" d="M 580.898438 564.773438 C 580.898438 565.582031 580.371094 566.238281 579.71875 566.238281 C 579.070312 566.238281 578.542969 565.582031 578.542969 564.773438 C 578.542969 563.964844 579.070312 563.308594 579.71875 563.308594 C 580.371094 563.308594 580.898438 563.964844 580.898438 564.773438 "/>
<path style=" stroke:none;fill-rule:nonzero;fill:rgb(44.709778%,25.878906%,18.818665%);fill-opacity:1;" d="M 597.996094 564.800781 C 597.996094 565.609375 597.46875 566.269531 596.820312 566.269531 C 596.167969 566.269531 595.644531 565.609375 595.644531 564.800781 C 595.644531 563.992188 596.167969 563.335938 596.820312 563.335938 C 597.46875 563.335938 597.996094 563.992188 597.996094 564.800781 "/>
<path style=" stroke:none;fill-rule:nonzero;fill:rgb(96.078491%,46.269226%,34.509277%);fill-opacity:1;" d="M 582.800781 594.53125 C 593.675781 595.140625 609.523438 587.347656 611.132812 575.59375 C 611.167969 575.339844 610.511719 575.390625 610.410156 575.550781 C 609.089844 577.660156 608.292969 580.015625 607.078125 582.203125 C 605.179688 585.613281 600.410156 587.902344 597.113281 589.664062 C 594.15625 591.242188 591.261719 592.761719 587.933594 593.394531 C 586.269531 593.710938 584.292969 593.679688 582.644531 594.25 C 582.332031 594.359375 582.605469 594.523438 582.800781 594.53125 "/>
<path style=" stroke:none;fill-rule:nonzero;fill:rgb(96.469116%,52.159119%,44.709778%);fill-opacity:1;" d="M 610.859375 563.875 C 611.992188 562.816406 612.964844 559.863281 614.949219 560.914062 C 615.136719 561.015625 615.367188 561.027344 615.5625 561.113281 C 616.335938 561.4375 616.453125 562.21875 616.722656 562.890625 C 617.1875 564.050781 617.347656 565.363281 617.519531 566.585938 C 617.53125 566.648438 617.695312 566.648438 617.703125 566.585938 C 618 564.367188 617.578125 560.8125 615.289062 559.777344 C 612.949219 558.710938 609.585938 561.265625 609.617188 563.710938 C 609.625 564.167969 610.640625 564.078125 610.859375 563.875 "/>
<path style=" stroke:none;fill-rule:nonzero;fill:rgb(96.078491%,46.269226%,34.509277%);fill-opacity:1;" d="M 586.628906 559.828125 C 586.699219 564.652344 585.070312 569.140625 584.617188 573.917969 C 584.386719 576.257812 589.804688 576.761719 591.277344 576.179688 C 591.363281 576.148438 591.433594 576.078125 591.445312 575.984375 C 591.457031 575.855469 591.472656 575.726562 591.488281 575.59375 C 591.523438 575.265625 590.730469 575.359375 590.601562 575.535156 C 589.234375 577.410156 585.625 573.570312 585.957031 572.046875 C 586.328125 570.355469 586.675781 568.695312 586.894531 566.976562 C 587.21875 564.394531 587.375 562.332031 586.824219 559.828125 C 586.8125 559.765625 586.628906 559.757812 586.628906 559.828125 "/>
<path style=" stroke:none;fill-rule:nonzero;fill:rgb(96.078491%,46.269226%,34.509277%);fill-opacity:1;" d="M 588.808594 581.714844 C 591.449219 582.953125 595.820312 580.992188 597.472656 578.753906 C 597.519531 578.671875 597.519531 578.589844 597.472656 578.507812 C 597.425781 578.429688 597.382812 578.355469 597.335938 578.277344 C 597.109375 577.890625 596.316406 577.960938 596.015625 578.195312 C 594.015625 579.726562 591.894531 581.464844 589.167969 581.289062 C 588.953125 581.273438 588.390625 581.519531 588.808594 581.714844 "/>
<path style=" stroke:none;fill-rule:nonzero;fill:rgb(38.42926%,21.958923%,16.079712%);fill-opacity:1;" d="M 608.273438 560.84375 C 608.335938 562.074219 607.210938 565.507812 607.507812 566.585938 C 607.804688 567.667969 608.847656 567.992188 609.191406 567.132812 C 611.011719 565.484375 610.753906 561.078125 613.742188 560.65625 C 616.980469 560.199219 617.613281 564.957031 617.523438 567.132812 C 619.054688 564.097656 620.703125 560.800781 620.722656 557.578125 C 620.738281 555.851562 620.746094 551.671875 620.722656 548.570312 C 620.679688 542.160156 615.796875 536.390625 608.582031 536.84375 C 605.289062 537.050781 601.59375 538.808594 600.152344 541.9375 C 598.609375 545.292969 600.75 548.105469 602.945312 550.503906 C 605.683594 553.5 608.058594 556.582031 608.273438 560.84375 "/>
<path style=" stroke:none;fill-rule:nonzero;fill:rgb(97.24884%,60.778809%,48.239136%);fill-opacity:1;" d="M 616.507812 560.9375 C 619.621094 564.074219 617.65625 573.1875 611.363281 576.152344 C 609.816406 574.414062 609.890625 569.761719 609.710938 567.464844 C 609.535156 565.207031 609.472656 563.046875 610.859375 561.148438 C 611.289062 560.5625 614.21875 558.628906 616.507812 560.9375 "/>
<path style=" stroke:none;fill-rule:nonzero;fill:rgb(96.078491%,46.269226%,34.509277%);fill-opacity:1;" d="M 611.394531 567.164062 C 611.339844 567.601562 610.980469 568.523438 611.324219 568.894531 C 611.597656 569.191406 611.894531 569.410156 612.273438 569.546875 C 613 569.796875 613.773438 569.476562 614.144531 568.832031 C 614.542969 568.144531 614.640625 567.242188 614.730469 566.46875 C 614.792969 565.90625 614.828125 565.277344 614.398438 564.84375 C 614.257812 564.699219 613.851562 564.699219 613.710938 564.84375 C 613.082031 565.472656 613.261719 566.632812 613.144531 567.449219 C 613.070312 567.929688 612.96875 568.542969 612.632812 568.929688 C 612.539062 569.039062 612.515625 568.988281 612.761719 568.972656 C 612.988281 568.957031 612.699219 568.886719 612.578125 568.792969 C 612.167969 568.484375 612.316406 567.628906 612.285156 567.164062 C 612.265625 566.855469 611.4375 566.859375 611.394531 567.164062 "/>
<path style=" stroke:none;fill-rule:nonzero;fill:rgb(96.078491%,46.269226%,34.509277%);fill-opacity:1;" d="M 613.203125 565.054688 C 614.042969 563.964844 614.882812 565.054688 615.078125 565.871094 C 615.195312 566.347656 615.167969 566.867188 615.125 567.347656 C 615.03125 568.371094 614.277344 569.203125 613.953125 570.140625 C 613.875 570.382812 614.402344 570.375 614.523438 570.304688 C 616.25 569.230469 617.09375 566.648438 615.9375 564.871094 C 615.222656 563.777344 613.042969 563.628906 612.492188 564.960938 C 612.378906 565.242188 613.074219 565.21875 613.203125 565.054688 "/>
<path style=" stroke:none;fill-rule:nonzero;fill:rgb(44.709778%,25.878906%,18.818665%);fill-opacity:1;" d="M 590.507812 545.105469 C 591.316406 544.332031 592.175781 543.222656 593.339844 543.746094 C 593.949219 544.015625 594.507812 545.429688 595.359375 545.847656 C 598.695312 547.496094 600.585938 546.007812 603.199219 546.808594 C 603.644531 550.074219 603.433594 548.480469 606.851562 549.007812 C 609.609375 549.433594 612.070312 546.828125 613.789062 544.4375 C 615.53125 542.023438 617.941406 540.558594 616.730469 537.8125 C 615.53125 535.078125 612.785156 534.320312 610.59375 532.632812 C 608.414062 530.960938 607.054688 528.453125 604.988281 526.644531 C 602.71875 524.664062 599.9375 523.269531 596.953125 522.808594 C 593.890625 522.335938 590.519531 522.75 587.796875 524.28125 C 585.066406 525.8125 582.777344 526.195312 580.507812 528.234375 C 576.550781 531.773438 571.578125 521.367188 565.511719 535.773438 C 564.640625 537.847656 565.019531 544.964844 575.757812 547.824219 C 578.648438 548.59375 579.761719 546.773438 582.226562 546.21875 C 585.246094 545.546875 587.8125 547.667969 590.507812 545.105469 "/>
<path style=" stroke:none;fill-rule:nonzero;fill:rgb(32.548523%,18.03894%,12.939453%);fill-opacity:1;" d="M 571.988281 532.136719 C 570.992188 533.101562 570.433594 534.171875 570.207031 535.546875 C 570.054688 536.484375 570.53125 538.101562 571.449219 538.578125 C 572.203125 538.964844 573.074219 538.898438 573.882812 538.667969 C 575.152344 538.300781 576.320312 538.0625 577.285156 539.097656 C 577.75 539.589844 578.261719 540.160156 578.617188 540.734375 C 578.707031 540.882812 579.332031 540.925781 579.292969 540.6875 C 579.164062 539.898438 578.171875 539.125 577.644531 538.5625 C 577.074219 537.957031 576.472656 537.796875 575.664062 537.90625 C 574.234375 538.097656 572.289062 539.03125 571.3125 537.472656 C 570.226562 535.726562 571.121094 533.625 572.324219 532.207031 C 572.402344 532.117188 572.058594 532.070312 571.988281 532.136719 "/>
<path style=" stroke:none;fill-rule:nonzero;fill:rgb(32.548523%,18.03894%,12.939453%);fill-opacity:1;" d="M 586 538.585938 C 587.238281 539.46875 588.039062 539.246094 589.222656 538.324219 C 590.558594 537.277344 592.847656 533.988281 595.046875 537.027344 C 595.433594 537.554688 595.480469 538.351562 595.875 538.929688 C 596.453125 539.769531 597.847656 539.886719 598.730469 540.035156 C 600.890625 540.394531 603.21875 539.902344 604.652344 538.164062 C 605.941406 536.597656 607.070312 532.746094 604.789062 531.78125 C 604.71875 531.753906 604.25 531.726562 604.359375 531.90625 C 606.21875 534.886719 603.515625 539.15625 600.277344 539.5625 C 598.238281 539.816406 596.738281 538.671875 596.125 536.878906 C 596.007812 536.558594 595.363281 535.980469 595.09375 535.863281 C 594.089844 535.417969 593.199219 535.265625 592.113281 535.578125 C 590.382812 536.074219 588.113281 539.453125 586.390625 538.4375 C 586.285156 538.371094 585.820312 538.460938 586 538.585938 "/>
<path style=" stroke:none;fill-rule:nonzero;fill:rgb(32.548523%,18.03894%,12.939453%);fill-opacity:1;" d="M 592.933594 527.878906 C 593.550781 527.011719 594.109375 526.867188 595.179688 526.832031 C 596.25 526.792969 597.046875 526.851562 597.714844 527.726562 C 598.671875 528.976562 598.871094 530.4375 598.03125 531.796875 C 598.375 531.773438 598.722656 531.75 599.070312 531.726562 C 599.011719 531.65625 598.957031 531.585938 598.902344 531.515625 C 598.804688 531.34375 598.355469 531.34375 598.253906 531.515625 C 598.199219 531.585938 598.144531 531.65625 598.089844 531.726562 C 597.734375 532.121094 598.867188 532.257812 599.125 531.945312 C 599.882812 531.039062 599.960938 529.875 599.457031 528.84375 C 599.101562 528.132812 598.589844 526.984375 597.753906 526.703125 C 596.695312 526.355469 595.710938 526.375 594.601562 526.445312 C 593.484375 526.519531 592.992188 526.859375 592.476562 527.816406 C 592.394531 527.976562 592.851562 527.996094 592.933594 527.878906 "/>
<path style=" stroke:none;fill-rule:nonzero;fill:rgb(32.548523%,18.03894%,12.939453%);fill-opacity:1;" d="M 605.675781 541.773438 C 606.03125 543.320312 607.496094 542.605469 608.578125 542.300781 C 609.285156 542.09375 609.753906 541.359375 610.078125 540.757812 C 610.273438 540.394531 610.519531 540.0625 610.703125 539.675781 C 610.796875 539.472656 611.042969 538.921875 611.277344 538.828125 C 611.453125 538.757812 611.457031 538.558594 611.277344 538.488281 C 611.082031 538.410156 610.980469 538.417969 610.789062 538.40625 C 610.621094 538.394531 610.359375 538.449219 610.253906 538.605469 C 609.785156 539.34375 609.296875 540.085938 608.902344 540.875 C 608.65625 541.351562 608.324219 541.753906 607.789062 541.910156 C 607.164062 542.085938 606.65625 542.546875 606.3125 541.726562 C 606.238281 541.558594 605.628906 541.574219 605.675781 541.773438 "/>
<path style=" stroke:none;fill-rule:nonzero;fill:rgb(32.548523%,18.03894%,12.939453%);fill-opacity:1;" d="M 600.417969 546.078125 C 600.394531 546.125 600.371094 546.175781 600.347656 546.222656 C 600.265625 546.394531 600.769531 546.445312 600.828125 546.289062 C 601.269531 545.097656 603.492188 547.832031 603.691406 548.578125 C 603.75 548.78125 603.949219 548.828125 604.136719 548.863281 C 605.890625 549.203125 608.371094 549.167969 609.90625 548.082031 C 611.457031 546.980469 615.324219 544.945312 614.304688 542.664062 C 614.234375 542.503906 613.84375 542.53125 613.765625 542.664062 C 612.464844 544.71875 605.566406 551.640625 603.933594 546.898438 C 603.398438 545.351562 601.601562 545.359375 600.371094 545.996094 C 600.3125 546.027344 600.265625 546.070312 600.292969 546.140625 C 600.3125 546.191406 600.332031 546.238281 600.347656 546.289062 C 600.40625 546.445312 600.902344 546.394531 600.828125 546.222656 C 600.804688 546.175781 600.785156 546.125 600.761719 546.078125 C 600.71875 545.984375 600.457031 545.984375 600.417969 546.078125 "/>
<path style=" stroke:none;fill-rule:nonzero;fill:rgb(32.548523%,18.03894%,12.939453%);fill-opacity:1;" d="M 586.828125 530.996094 C 584.621094 531.128906 581.71875 532.492188 581.800781 535.105469 C 581.835938 536.324219 582.527344 538.628906 584.074219 538.410156 C 584.714844 538.320312 584.441406 537.851562 583.921875 537.867188 C 584.210938 537.859375 583.910156 537.765625 584.011719 537.847656 C 583.808594 537.691406 583.664062 537.359375 583.542969 537.132812 C 583.34375 536.761719 583.140625 536.316406 583.070312 535.894531 C 582.917969 534.921875 582.804688 534.3125 583.371094 533.425781 C 584.179688 532.160156 585.390625 531.410156 586.886719 531.199219 C 587.125 531.167969 587.027344 530.984375 586.828125 530.996094 "/>
<path style=" stroke:none;fill-rule:nonzero;fill:rgb(15.689087%,18.03894%,23.919678%);fill-opacity:1;" d="M 582.378906 1040.226562 L 534.726562 1040.226562 L 534.726562 1038.019531 L 582.378906 1038.019531 L 582.378906 1040.226562 "/>
<path style=" stroke:none;fill-rule:nonzero;fill:rgb(100%,100%,100%);fill-opacity:1;" d="M 547.597656 1028.023438 C 547.796875 1028.417969 548 1028.808594 548.25 1029.175781 C 548.472656 1029.496094 548.71875 1029.730469 548.894531 1030.085938 C 549.269531 1030.820312 549.757812 1031.269531 550.632812 1031.175781 C 550.859375 1031.152344 551.105469 1031.0625 551.171875 1030.828125 C 551.175781 1030.8125 551.175781 1030.796875 551.1875 1030.78125 C 551.175781 1030.695312 551.136719 1030.625 551.066406 1030.570312 C 550.648438 1030.273438 550.570312 1029.726562 550.191406 1029.410156 C 549.917969 1029.183594 549.605469 1029.019531 549.335938 1028.777344 C 549.042969 1028.507812 548.789062 1028.195312 548.53125 1027.894531 C 548.359375 1027.691406 547.421875 1027.664062 547.597656 1028.023438 "/>
<path style=" stroke:none;fill-rule:nonzero;fill:rgb(100%,100%,100%);fill-opacity:1;" d="M 551.652344 1026.667969 C 551.757812 1026.75 551.757812 1027.265625 551.847656 1027.414062 C 552.019531 1027.707031 552.121094 1028.011719 552.308594 1028.300781 C 552.882812 1029.152344 553.707031 1029.734375 554.773438 1029.671875 C 554.972656 1029.660156 556.128906 1029.496094 555.777344 1029.023438 C 555.570312 1028.742188 555.261719 1028.542969 555.007812 1028.300781 C 554.722656 1028.019531 554.53125 1027.648438 554.269531 1027.347656 C 553.769531 1026.773438 552.980469 1026.199219 552.1875 1026.210938 C 552.027344 1026.210938 551.289062 1026.390625 551.652344 1026.667969 "/>
<path style=" stroke:none;fill-rule:nonzero;fill:rgb(100%,100%,100%);fill-opacity:1;" d="M 555.757812 1024.871094 C 555.816406 1024.726562 555.683594 1024.964844 555.753906 1025.085938 C 555.804688 1025.175781 555.863281 1025.261719 555.910156 1025.351562 C 556.066406 1025.636719 556.199219 1025.894531 556.382812 1026.160156 C 556.585938 1026.445312 556.765625 1026.746094 556.976562 1027.023438 C 557.179688 1027.289062 557.5 1027.484375 557.71875 1027.621094 C 558.144531 1027.894531 559.300781 1028.058594 559.46875 1027.386719 C 559.667969 1026.59375 558.871094 1025.808594 558.359375 1025.257812 C 557.878906 1024.734375 556.164062 1023.890625 555.757812 1024.871094 "/>
<path style=" stroke:none;fill-rule:nonzero;fill:rgb(100%,100%,100%);fill-opacity:1;" d="M 559.03125 1022.1875 C 559.285156 1022.667969 559.503906 1023.242188 559.851562 1023.664062 C 560.386719 1024.324219 560.777344 1024.660156 561.644531 1024.828125 C 562.058594 1024.90625 563.054688 1024.84375 563.121094 1024.273438 C 563.175781 1023.828125 562.671875 1023.449219 562.398438 1023.140625 C 561.933594 1022.609375 561.101562 1022.257812 560.511719 1021.878906 C 560.234375 1021.703125 559.921875 1021.652344 559.597656 1021.695312 C 559.394531 1021.722656 558.859375 1021.871094 559.03125 1022.1875 "/>
<path style=" stroke:none;fill-rule:nonzero;fill:rgb(100%,100%,100%);fill-opacity:1;" d="M 561.996094 1018.886719 C 562.183594 1019.011719 562.3125 1019.257812 562.429688 1019.441406 C 562.597656 1019.695312 562.824219 1019.867188 563.054688 1020.0625 C 563.523438 1020.453125 563.953125 1020.875 564.539062 1021.09375 C 565.164062 1021.328125 565.886719 1021.230469 566.46875 1020.90625 C 566.878906 1020.683594 567.292969 1020.207031 566.757812 1019.875 C 565.570312 1019.140625 564.367188 1018.273438 562.933594 1018.128906 C 562.636719 1018.09375 561.414062 1018.472656 561.996094 1018.886719 "/>
<path style=" stroke:none;fill-rule:nonzero;fill:rgb(23.919678%,28.62854%,37.649536%);fill-opacity:1;" d="M 629.550781 1016.421875 L 628.703125 1019.832031 L 630.125 1039.210938 C 630.125 1039.210938 634.996094 1046.25 644.984375 1043.34375 C 644.984375 1043.34375 652.351562 1039.140625 649.050781 1031.511719 L 643.421875 1017.785156 L 642.035156 1014.6875 L 639.53125 1011.441406 L 631.4375 1012.566406 L 629.550781 1016.421875 "/>
<path style=" stroke:none;fill-rule:nonzero;fill:rgb(100%,100%,100%);fill-opacity:1;" d="M 634.324219 1023.230469 C 635.5625 1022.988281 636.707031 1022.34375 637.933594 1022.132812 C 639.09375 1021.9375 640.070312 1022.140625 641.148438 1021.535156 C 641.96875 1021.078125 640.933594 1020.652344 640.488281 1020.636719 C 639.335938 1020.597656 638.125 1020.730469 637 1020.960938 C 635.816406 1021.210938 634.804688 1021.929688 633.742188 1022.453125 C 632.886719 1022.882812 633.710938 1023.351562 634.324219 1023.230469 "/>
<path style=" stroke:none;fill-rule:nonzero;fill:rgb(100%,100%,100%);fill-opacity:1;" d="M 634.796875 1027.722656 C 636.824219 1026.757812 638.863281 1026.558594 641.054688 1026.3125 C 642.417969 1026.15625 642.253906 1025.054688 640.902344 1025.203125 C 638.375 1025.492188 635.875 1025.671875 633.902344 1027.429688 C 633.492188 1027.792969 634.621094 1027.804688 634.796875 1027.722656 "/>
<path style=" stroke:none;fill-rule:nonzero;fill:rgb(100%,100%,100%);fill-opacity:1;" d="M 635.828125 1032.15625 C 637.65625 1031.398438 639.683594 1030.804688 641.675781 1030.789062 C 642.863281 1030.78125 643.902344 1029.488281 642.179688 1029.5 C 639.6875 1029.519531 636.707031 1029.960938 634.9375 1031.863281 C 634.539062 1032.285156 635.664062 1032.226562 635.828125 1032.15625 "/>
<path style=" stroke:none;fill-rule:nonzero;fill:rgb(15.689087%,18.03894%,23.919678%);fill-opacity:1;" d="M 631.527344 1037.261719 C 633.8125 1039.996094 637.265625 1041.3125 640.816406 1040.75 C 644.894531 1040.101562 646.992188 1038.390625 647.851562 1034.238281 C 647.929688 1033.863281 647.074219 1033.996094 646.953125 1034.238281 C 646.425781 1035.3125 645.671875 1038.34375 644.441406 1038.832031 C 643.347656 1039.265625 642.316406 1039.679688 641.160156 1039.960938 C 637.84375 1040.769531 634.375 1039.488281 631.957031 1037.136719 C 631.855469 1037.039062 631.414062 1037.125 631.527344 1037.261719 "/>
<path style=" stroke:none;fill-rule:nonzero;fill:rgb(15.689087%,18.03894%,23.919678%);fill-opacity:1;" d="M 631.734375 1021.429688 C 631.851562 1023.140625 632.238281 1024.78125 632.523438 1026.46875 C 632.871094 1028.535156 632.582031 1030.378906 633.625 1032.285156 C 633.6875 1032.40625 634.070312 1032.355469 634.101562 1032.21875 C 634.878906 1028.8125 633.867188 1024.3125 632.035156 1021.363281 C 631.988281 1021.292969 631.726562 1021.328125 631.734375 1021.429688 "/>
<path style=" stroke:none;fill-rule:nonzero;fill:rgb(15.689087%,18.03894%,23.919678%);fill-opacity:1;" d="M 640.210938 1018.6875 C 640.691406 1020.976562 641.203125 1023.222656 641.539062 1025.542969 C 641.824219 1027.601562 641.839844 1029.71875 643.140625 1031.433594 C 643.238281 1031.558594 643.652344 1031.527344 643.695312 1031.359375 C 643.898438 1030.542969 643.792969 1030.136719 643.519531 1029.316406 C 643.109375 1028.082031 643.199219 1026.613281 643.019531 1025.335938 C 642.679688 1022.890625 642.226562 1020.71875 641.179688 1018.484375 C 641.054688 1018.226562 640.140625 1018.371094 640.210938 1018.6875 "/>
<g clip-path="url(#clip1)" clip-rule="nonzero">
<path style=" stroke:none;fill-rule:nonzero;fill:rgb(36.859131%,79.219055%,88.62915%);fill-opacity:1;" d="M 641 673.925781 C 641.285156 677.679688 641.585938 681.4375 641.863281 685.191406 C 643.046875 701.503906 644.457031 717.804688 645.554688 734.121094 C 646.054688 741.574219 647.15625 749.058594 647.492188 756.507812 C 647.792969 763.164062 654.496094 772.96875 647.113281 777.53125 C 642.789062 780.203125 636.742188 781.347656 631.804688 782.140625 C 621.394531 783.820312 611.089844 778.828125 601.019531 782.980469 C 596.433594 784.871094 591.75 787.710938 587.90625 790.84375 C 584.046875 793.988281 581.242188 799.042969 576.65625 801.203125 C 563.566406 807.363281 566.34375 787.792969 565.132812 781 C 563.714844 773.09375 558.085938 769.421875 551.238281 766.511719 C 546.90625 764.671875 543.617188 763.816406 543.960938 758.84375 C 545.128906 741.917969 547.367188 724.84375 548.75 707.859375 C 549.757812 695.457031 550.960938 683.066406 552.0625 670.667969 L 551.25 697.613281 L 514.597656 676.648438 L 529.410156 639.324219 C 533.738281 628.804688 542.144531 623.441406 542.144531 623.441406 L 583.015625 606.941406 C 583.015625 606.941406 593.460938 611.066406 606.855469 606.941406 L 638.296875 620.140625 C 638.296875 620.140625 655.074219 625.507812 657.960938 634.578125 L 676.917969 687.894531 L 642.566406 694.316406 L 641 673.925781 "/>
</g>
<path style=" stroke:none;fill-rule:nonzero;fill:rgb(97.24884%,60.778809%,48.239136%);fill-opacity:1;" d="M 565.949219 783.515625 C 565.949219 783.515625 548.804688 728.609375 536.144531 700.597656 C 536.144531 700.597656 518.804688 703.886719 517.800781 718.3125 C 517.800781 718.3125 516.59375 725.738281 526.484375 739.761719 L 556.113281 785.230469 L 555.746094 798.519531 C 552.933594 799.734375 573.1875 788.117188 565.949219 783.515625 "/>
<path style=" stroke:none;fill-rule:nonzero;fill:rgb(31.369019%,67.449951%,75.289917%);fill-opacity:1;" d="M 560.148438 617.671875 C 558.222656 630.125 557.027344 642.707031 555.019531 655.144531 C 553.976562 661.609375 553.289062 668.125 552.210938 674.589844 C 551.746094 677.359375 551.535156 680.15625 551.222656 682.941406 C 550.878906 686.007812 549.726562 688.214844 549.871094 691.292969 C 549.90625 691.945312 551.621094 691.917969 551.726562 691.292969 C 553.757812 679.304688 555.222656 667.21875 557.003906 655.144531 C 557.9375 648.8125 558.609375 642.40625 559.367188 636.046875 C 560.082031 630.082031 561.757812 623.664062 561.230469 617.671875 C 561.199219 617.292969 560.210938 617.300781 560.148438 617.671875 "/>
<path style=" stroke:none;fill-rule:nonzero;fill:rgb(31.369019%,67.449951%,75.289917%);fill-opacity:1;" d="M 633.101562 618.90625 C 636.433594 632.460938 636.375 646.066406 638.277344 659.789062 C 639.125 665.917969 639.101562 672.125 640.128906 678.234375 C 641.066406 683.828125 639.980469 690.535156 642.429688 695.6875 C 642.566406 695.976562 643.34375 695.941406 643.414062 695.625 C 644.640625 690.542969 643.464844 683.328125 642.496094 678.234375 C 641.222656 671.539062 641.328125 664.636719 640.402344 657.882812 C 638.585938 644.714844 639.339844 631.351562 634.167969 618.835938 C 634.042969 618.546875 633.023438 618.589844 633.101562 618.90625 "/>
<path style=" stroke:none;fill-rule:nonzero;fill:rgb(31.369019%,67.449951%,75.289917%);fill-opacity:1;" d="M 579.023438 609.394531 C 578.636719 609.316406 579.53125 610.375 579.726562 610.484375 C 581.054688 611.253906 582.300781 612.011719 583.710938 612.613281 C 586.4375 613.777344 589.867188 613.625 592.761719 613.921875 C 598.183594 614.476562 605.984375 614.382812 610.160156 610.25 C 611.234375 609.183594 607.992188 608.671875 607.257812 609.417969 C 602.800781 613.921875 589.902344 613.453125 584.078125 611.191406 C 582.371094 610.53125 580.972656 608.246094 579.023438 608.625 C 578.304688 608.765625 578.304688 609.253906 579.023438 609.394531 "/>
<path style=" stroke:none;fill-rule:nonzero;fill:rgb(31.369019%,67.449951%,75.289917%);fill-opacity:1;" d="M 607.660156 658.914062 C 607.714844 661.234375 607.265625 663.550781 607.070312 665.867188 C 606.867188 668.261719 607.265625 670.65625 607.1875 673.0625 C 607.109375 675.570312 606.765625 678.402344 609.726562 679.257812 C 613.449219 680.324219 617.902344 679.285156 621.691406 679.132812 C 624.128906 679.03125 627.625 678.617188 629.210938 676.523438 C 630.097656 675.347656 629.605469 673.027344 629.613281 671.695312 C 629.625 669.324219 629.632812 666.953125 629.644531 664.582031 C 629.65625 662.230469 630.226562 657.402344 627.285156 656.558594 C 624.554688 655.773438 621.589844 656.519531 618.910156 657.109375 C 615.277344 657.917969 610.472656 657.046875 607.105469 658.636719 C 606.902344 658.730469 606.777344 658.945312 606.980469 659.113281 C 608.054688 660.019531 609.066406 659.929688 610.453125 660.015625 C 612.746094 660.15625 615.792969 659.832031 618.085938 659.28125 C 619.417969 658.960938 625.695312 656.546875 625.746094 659.632812 C 625.800781 662.753906 626.105469 665.886719 626.117188 669.054688 C 626.128906 670.578125 626.867188 675.652344 625.421875 676.46875 C 622.304688 678.25 616.511719 677.882812 613.035156 677.933594 C 608.546875 678 609.863281 671.613281 609.347656 668.527344 C 608.808594 665.328125 609.152344 662.136719 608.511719 658.914062 C 608.457031 658.632812 607.65625 658.621094 607.660156 658.914062 "/>
<path style=" stroke:none;fill-rule:nonzero;fill:rgb(96.078491%,46.269226%,34.509277%);fill-opacity:1;" d="M 530.160156 695.871094 C 530.8125 698.339844 532.945312 700.609375 534.027344 702.976562 C 535.648438 706.519531 538.105469 709.738281 539.796875 713.289062 C 543.660156 721.429688 546.589844 729.902344 549.226562 738.519531 C 553.316406 751.902344 557.871094 765.769531 563.789062 778.484375 C 563.886719 778.691406 564.640625 778.683594 564.582031 778.433594 C 561.835938 765.433594 555.457031 753.089844 551.558594 740.410156 C 548.914062 731.808594 545.992188 723.273438 542.175781 715.121094 C 538.984375 708.300781 534.738281 702.257812 531.03125 695.8125 C 530.917969 695.609375 530.085938 695.59375 530.160156 695.871094 "/>
<path style=" stroke:none;fill-rule:nonzero;fill:rgb(31.369019%,67.449951%,75.289917%);fill-opacity:1;" d="M 560.109375 749.363281 C 564.839844 753.335938 570.347656 758.289062 572.832031 763.914062 C 574.375 767.398438 573.890625 770.941406 574.742188 774.550781 C 575.4375 777.5 574.765625 780.707031 576.1875 783.375 C 576.566406 784.078125 578.9375 784.027344 578.652344 783.042969 C 576.800781 776.71875 578.011719 769.785156 575.449219 763.558594 C 572.929688 757.414062 566.78125 752.574219 561.34375 749.003906 C 561.03125 748.800781 559.597656 748.929688 560.109375 749.363281 "/>
<path style=" stroke:none;fill-rule:nonzero;fill:rgb(31.369019%,67.449951%,75.289917%);fill-opacity:1;" d="M 567.078125 742.601562 C 573.097656 745.664062 580.746094 747.71875 587.433594 748.324219 C 591.109375 748.652344 594.8125 748.503906 598.496094 748.722656 C 600.355469 748.828125 602.015625 748.824219 603.351562 747.496094 C 603.75 747.101562 602.808594 746.96875 602.589844 747.007812 C 591.21875 748.949219 578.515625 746.082031 567.851562 742.109375 C 567.542969 741.996094 566.457031 742.28125 567.078125 742.601562 "/>
<path style=" stroke:none;fill-rule:nonzero;fill:rgb(31.369019%,67.449951%,75.289917%);fill-opacity:1;" d="M 613.460938 769.816406 C 618.285156 772.832031 624.144531 774.375 629.789062 773.480469 C 633.753906 772.851562 640.386719 770.707031 640.597656 765.890625 C 640.621094 765.335938 639.375 765.515625 639.15625 765.792969 C 632.808594 773.796875 623.066406 774.257812 614.335938 769.386719 C 614.003906 769.203125 612.855469 769.4375 613.460938 769.816406 "/>
<path style=" stroke:none;fill-rule:nonzero;fill:rgb(31.369019%,67.449951%,75.289917%);fill-opacity:1;" d="M 625.683594 698.453125 C 626.589844 703.597656 626.832031 709.257812 627.148438 714.492188 C 627.511719 720.453125 628.941406 728.046875 627.160156 733.832031 C 627.082031 734.082031 627.210938 734.222656 627.429688 734.335938 C 627.644531 734.445312 627.851562 734.554688 628.066406 734.664062 C 628.324219 734.800781 630.054688 734.832031 629.648438 734.214844 C 629.523438 734.023438 629.398438 733.835938 629.273438 733.644531 C 629.085938 733.359375 628.382812 733.359375 628.191406 733.644531 C 628.070312 733.835938 627.945312 734.023438 627.820312 734.214844 C 628.398438 734.175781 628.972656 734.136719 629.550781 734.101562 C 629.023438 733.636719 629.757812 729.074219 629.753906 728.46875 C 629.726562 724.425781 629.199219 720.429688 629.050781 716.394531 C 628.835938 710.609375 628.507812 703.929688 626.820312 698.375 C 626.722656 698.054688 625.621094 698.101562 625.683594 698.453125 "/>
</g>
</svg>
