<?xml version="1.0" encoding="UTF-8"?>
<svg xmlns="http://www.w3.org/2000/svg" xmlns:xlink="http://www.w3.org/1999/xlink" width="375pt" height="374.999991pt" viewBox="0 0 375 374.999991" version="1.2">
<defs>
<clipPath id="clip1">
  <path d="M 0 30.410156 L 375 30.410156 L 375 334.160156 L 0 334.160156 Z M 0 30.410156 "/>
</clipPath>
</defs>
<g id="surface1">
<g clip-path="url(#clip1)" clip-rule="nonzero">
<path style=" stroke:none;fill-rule:nonzero;fill:rgb(33.329773%,67.449951%,93.328857%);fill-opacity:1;" d="M 374.769531 66.300781 C 360.980469 72.386719 346.21875 76.527344 330.648438 78.394531 C 346.464844 68.898438 358.628906 53.800781 364.386719 35.863281 C 349.546875 44.710938 333.082031 51.042969 315.5625 54.53125 C 301.613281 39.597656 281.660156 30.261719 259.519531 30.261719 C 217.101562 30.261719 182.714844 64.675781 182.714844 107.128906 C 182.714844 113.132812 183.363281 119.058594 184.742188 124.660156 C 120.914062 121.414062 64.304688 90.8125 26.347656 44.304688 C 19.695312 55.667969 15.882812 68.898438 15.882812 83.019531 C 15.882812 109.726562 29.429688 133.261719 50.027344 147.0625 C 37.457031 146.65625 25.617188 143.164062 15.234375 137.402344 C 15.234375 137.726562 15.234375 138.050781 15.234375 138.375 C 15.234375 175.632812 41.757812 206.71875 76.875 213.78125 C 70.46875 215.566406 63.65625 216.457031 56.597656 216.457031 C 51.652344 216.457031 46.867188 215.972656 42.160156 215.078125 C 51.976562 245.597656 80.28125 267.835938 113.9375 268.484375 C 87.660156 289.101562 54.570312 301.359375 18.5625 301.359375 C 12.398438 301.359375 6.234375 301.035156 0.230469 300.304688 C 34.214844 322.136719 74.601562 334.878906 117.992188 334.878906 C 259.359375 334.878906 336.570312 217.675781 336.570312 116.054688 C 336.570312 112.726562 336.488281 109.398438 336.324219 106.074219 C 351.410156 95.277344 364.46875 81.722656 374.769531 66.300781 Z M 374.769531 66.300781 "/>
</g>
</g>
</svg>
