<?xml version="1.0" encoding="UTF-8"?>
<svg xmlns="http://www.w3.org/2000/svg" xmlns:xlink="http://www.w3.org/1999/xlink" width="1190.25pt" height="1683.749945pt" viewBox="0 0 1190.25 1683.749945" version="1.2">
<defs>
<clipPath id="clip1">
  <path d="M 442 450 L 749.996094 450 L 749.996094 821 L 442 821 Z M 442 450 "/>
</clipPath>
</defs>
<g id="surface1">
<path style=" stroke:none;fill-rule:nonzero;fill:rgb(97.24884%,60.778809%,48.239136%);fill-opacity:1;" d="M 714.320312 832.589844 C 704.757812 837.222656 704.757812 837.222656 690.019531 869.089844 C 687.808594 873.871094 697.707031 871.777344 703.109375 862.5 C 703.074219 862.5625 700.996094 865.421875 700.878906 865.667969 C 698.957031 869.578125 696.832031 871.816406 697.308594 874.054688 C 698.089844 877.796875 702.851562 879.257812 710.660156 880.746094 C 711.941406 880.996094 715.820312 878.699219 717.179688 879.078125 C 718.554688 879.453125 721.90625 877.261719 723.480469 877.195312 C 726.234375 877.078125 725.621094 875.234375 727.574219 873.515625 C 728.515625 872.691406 729.867188 872.085938 730.621094 871.117188 C 735.558594 864.796875 731.984375 855.8125 730.285156 848.988281 C 728.96875 843.625 727.050781 835.683594 721.941406 832.507812 C 719.679688 831.105469 716.636719 831.460938 714.320312 832.589844 "/>
<path style=" stroke:none;fill-rule:nonzero;fill:rgb(96.078491%,46.269226%,34.509277%);fill-opacity:1;" d="M 714.015625 866.199219 C 714.40625 867.792969 714.613281 869.3125 714.3125 870.941406 C 714.050781 872.3125 712.960938 873.746094 713.265625 875.105469 C 713.320312 875.351562 713.785156 875.53125 713.992188 875.386719 C 715.15625 874.5625 715.476562 872.425781 715.675781 871.054688 C 715.90625 869.5 715.527344 867.941406 715.09375 866.457031 C 714.992188 866.105469 713.925781 865.816406 714.015625 866.199219 "/>
<path style=" stroke:none;fill-rule:nonzero;fill:rgb(96.078491%,46.269226%,34.509277%);fill-opacity:1;" d="M 722.6875 866.269531 C 723.058594 866.140625 723.421875 866.011719 723.78125 865.890625 C 723.386719 865.667969 722.988281 865.449219 722.59375 865.238281 C 722.125 866.628906 722.398438 868.113281 721.972656 869.53125 C 721.585938 870.839844 721.261719 872.132812 722.503906 873.042969 C 722.65625 873.152344 723.609375 873.535156 723.550781 873.054688 C 723.375 871.847656 723.648438 870.824219 723.96875 869.664062 C 724.335938 868.339844 723.78125 867.085938 723.941406 865.753906 C 724.003906 865.214844 723.035156 864.949219 722.652344 865.15625 C 722.351562 865.328125 722.042969 865.492188 721.742188 865.65625 C 721.367188 865.863281 722.410156 866.371094 722.6875 866.269531 "/>
<path style=" stroke:none;fill-rule:nonzero;fill:rgb(96.078491%,46.269226%,34.509277%);fill-opacity:1;" d="M 710.347656 856.394531 C 710.554688 857.320312 709.679688 858.09375 710.1875 858.925781 C 710.351562 859.191406 710.777344 859.359375 711.082031 859.269531 C 712.367188 858.890625 711.636719 857.355469 711.222656 856.542969 C 711.132812 856.34375 710.269531 856.042969 710.347656 856.394531 "/>
<path style=" stroke:none;fill-rule:nonzero;fill:rgb(96.078491%,46.269226%,34.509277%);fill-opacity:1;" d="M 718.425781 855.503906 C 718.582031 855.628906 718.15625 856.875 718.125 857.058594 C 718.019531 857.589844 717.992188 858.125 718.175781 858.644531 C 718.339844 859.101562 719.757812 859.933594 720.039062 859.222656 C 720.167969 858.890625 719.914062 858.464844 719.769531 858.171875 C 719.679688 857.976562 719.292969 857.832031 719.097656 857.90625 C 718.785156 858.03125 718.324219 858.175781 718.1875 858.507812 C 718.8125 858.707031 719.433594 858.894531 720.058594 859.089844 C 719.648438 857.917969 720.390625 855.871094 719.015625 855.1875 C 718.710938 855.035156 717.867188 855.066406 718.425781 855.503906 "/>
<path style=" stroke:none;fill-rule:nonzero;fill:rgb(96.078491%,46.269226%,34.509277%);fill-opacity:1;" d="M 726.378906 853.285156 C 725.875 854.125 726.277344 854.480469 727.09375 854.882812 C 726.929688 854.664062 726.761719 854.429688 726.601562 854.203125 C 726.089844 855.054688 726.714844 855.632812 727.542969 855.894531 C 728.328125 856.148438 729.03125 855.710938 728.085938 855.148438 C 728.410156 855.339844 728.304688 855.3125 728.394531 854.902344 C 728.488281 854.410156 727.777344 854.140625 727.414062 854.035156 C 727.820312 854.15625 727.601562 854.390625 727.714844 853.796875 C 727.800781 853.304688 726.632812 852.851562 726.378906 853.285156 "/>
<path style=" stroke:none;fill-rule:nonzero;fill:rgb(97.24884%,60.778809%,48.239136%);fill-opacity:1;" d="M 726.945312 798.292969 C 728.425781 755.542969 734.574219 725.300781 726.765625 672.671875 C 723.597656 651.289062 729.726562 627.351562 724.503906 606.179688 C 721.136719 606.109375 717.777344 606.09375 714.410156 606.441406 C 703.992188 607.519531 693.53125 609.371094 683.117188 608.3125 C 687.199219 677.640625 686.59375 684.636719 705.269531 795.808594 C 706.503906 803.144531 709.542969 867.796875 718.300781 859.425781 C 726.742188 851.363281 726.625 807.617188 726.945312 798.292969 "/>
<path style=" stroke:none;fill-rule:nonzero;fill:rgb(97.24884%,60.778809%,48.239136%);fill-opacity:1;" d="M 461.558594 554.882812 L 442.28125 641.421875 C 442.28125 641.421875 439.992188 678.476562 461.53125 689.769531 C 461.53125 689.769531 481.71875 686.269531 485.761719 655.347656 L 508.738281 574.570312 L 461.558594 554.882812 "/>
<path style=" stroke:none;fill-rule:nonzero;fill:rgb(97.24884%,60.778809%,48.239136%);fill-opacity:1;" d="M 683.117188 1229.46875 L 659.171875 1229.46875 L 659.171875 1166.210938 L 683.117188 1166.210938 L 683.117188 1229.46875 "/>
<path style=" stroke:none;fill-rule:nonzero;fill:rgb(97.24884%,60.778809%,48.239136%);fill-opacity:1;" d="M 564.507812 1244.074219 L 540.566406 1244.074219 L 540.566406 1166.210938 L 564.507812 1166.210938 L 564.507812 1244.074219 "/>
<path style=" stroke:none;fill-rule:nonzero;fill:rgb(45.098877%,55.288696%,72.549438%);fill-opacity:1;" d="M 566.59375 1217.28125 C 583.550781 1147.695312 585.960938 1040.488281 586.074219 1027.375 C 586.554688 970.011719 599.777344 887.933594 601.851562 830.460938 C 601.851562 902.394531 615.964844 925.859375 617.460938 997.984375 C 618.023438 1025.277344 649.484375 1184.644531 652.960938 1217.28125 C 652.960938 1217.28125 669.957031 1225.015625 687.644531 1212.167969 C 690.390625 1156.351562 696.777344 1067.773438 696.761719 1052.207031 C 696.71875 1020.578125 696.597656 986.160156 696.761719 954.53125 C 697.023438 903.417969 691.832031 791.359375 682.4375 714.113281 L 512.878906 714.113281 C 507.648438 749.738281 510.742188 774.25 509.746094 783.539062 C 505.746094 820.933594 507.074219 863.035156 508.738281 900.632812 C 510.980469 951.414062 509.359375 998.417969 508.738281 1049.589844 C 508.667969 1055.050781 518.535156 1168.78125 532.679688 1219.859375 C 532.679688 1219.859375 556.949219 1227.085938 566.59375 1217.28125 "/>
<path style=" stroke:none;fill-rule:nonzero;fill:rgb(97.24884%,60.778809%,48.239136%);fill-opacity:1;" d="M 570.125 459.042969 L 617.457031 459.042969 L 617.457031 407.445312 L 570.125 407.445312 C 570.125 407.445312 575.171875 448.097656 570.125 459.042969 "/>
<path style=" stroke:none;fill-rule:nonzero;fill:rgb(96.078491%,46.269226%,34.509277%);fill-opacity:1;" d="M 617.457031 430.839844 L 617.457031 407.445312 L 570.125 407.445312 C 570.125 407.445312 571.550781 418.929688 572.128906 431.328125 C 585.757812 437.707031 602.949219 436.757812 617.457031 430.839844 "/>
<path style=" stroke:none;fill-rule:nonzero;fill:rgb(23.919678%,28.62854%,37.649536%);fill-opacity:1;" d="M 564.507812 1226.609375 L 570.96875 1267.664062 L 480.453125 1267.664062 C 481.628906 1257.105469 489.847656 1254.757812 489.847656 1254.757812 L 523.316406 1241.273438 L 536.941406 1224.054688 C 536.941406 1224.054688 539.070312 1219.886719 541.40625 1219.859375 C 541.40625 1219.859375 552.539062 1224.546875 547.773438 1228.164062 C 547.773438 1228.164062 559.816406 1228.242188 564.507812 1226.609375 "/>
<path style=" stroke:none;fill-rule:nonzero;fill:rgb(40.388489%,49.409485%,69.799805%);fill-opacity:1;" d="M 586.875 758.519531 C 584.128906 773.34375 584.4375 791.160156 585.355469 806.25 C 585.707031 811.929688 596.691406 808.808594 599.339844 807.707031 C 600.097656 807.398438 600.097656 806.597656 599.339844 806.289062 C 597.835938 805.667969 596.410156 805.335938 594.757812 805.335938 C 590.113281 805.335938 591.675781 800.449219 591.605469 796.636719 C 591.394531 784.105469 592.394531 770.855469 590.105469 758.519531 C 589.894531 757.402344 587.082031 757.402344 586.875 758.519531 "/>
<path style=" stroke:none;fill-rule:nonzero;fill:rgb(40.388489%,49.409485%,69.799805%);fill-opacity:1;" d="M 601.523438 752.269531 C 599.386719 767.886719 601.257812 783.667969 599.984375 799.324219 C 598.730469 814.800781 600.027344 830.421875 600.347656 846.09375 C 600.375 847.636719 604.792969 847.636719 604.824219 846.09375 C 604.980469 838.136719 605.117188 830.125 604.773438 822.175781 C 604.472656 815.292969 602.9375 809.242188 604.167969 802.308594 C 606.921875 786.867188 605.765625 767.761719 603.652344 752.269531 C 603.542969 751.53125 601.617188 751.53125 601.523438 752.269531 "/>
<path style=" stroke:none;fill-rule:nonzero;fill:rgb(40.388489%,49.409485%,69.799805%);fill-opacity:1;" d="M 549.371094 760.085938 C 547.183594 774.734375 549.414062 788.992188 544.023438 803.230469 C 539.164062 816.035156 528.445312 829.328125 514.019531 830.46875 C 509.699219 830.808594 512.617188 834.128906 515.773438 833.578125 C 516.46875 833.457031 517.152344 833.316406 517.832031 833.167969 C 519.488281 832.8125 519.488281 831.230469 517.832031 830.875 C 517.152344 830.730469 516.46875 830.589844 515.773438 830.46875 C 515.484375 831.523438 515.191406 832.578125 514.898438 833.632812 C 549.738281 831.347656 556.53125 787.339844 552.449219 760.085938 C 552.292969 759.023438 549.535156 759.023438 549.371094 760.085938 "/>
<path style=" stroke:none;fill-rule:nonzero;fill:rgb(40.388489%,49.409485%,69.799805%);fill-opacity:1;" d="M 646.855469 761.648438 C 647.09375 780.730469 650.550781 821 678.613281 819.082031 C 679.386719 819.027344 680.691406 818.65625 681.066406 817.882812 C 681.257812 817.484375 681.453125 817.09375 681.640625 816.695312 C 682.414062 815.101562 678.777344 815.175781 678.082031 815.359375 C 673.53125 816.582031 668.144531 810.488281 665.203125 807.667969 C 659.96875 802.648438 657.5625 795.769531 655.777344 788.957031 C 653.355469 779.730469 652.71875 770.402344 649.089844 761.5 C 648.851562 760.90625 646.847656 760.894531 646.855469 761.648438 "/>
<path style=" stroke:none;fill-rule:nonzero;fill:rgb(38.42926%,21.958923%,16.079712%);fill-opacity:1;" d="M 545.773438 355.191406 C 548.171875 362.886719 550.554688 371.800781 555.246094 378.75 C 560.597656 386.6875 569.25 387.882812 573.976562 378.84375 C 578.417969 370.332031 579.117188 359.460938 578.183594 350.296875 C 577.675781 345.292969 576.433594 339.574219 572.070312 335.859375 C 565.257812 330.058594 555.609375 330.96875 549.769531 336.769531 C 544.292969 342.214844 543.65625 348.410156 545.773438 355.191406 "/>
<path style=" stroke:none;fill-rule:nonzero;fill:rgb(97.24884%,60.778809%,48.239136%);fill-opacity:1;" d="M 552.410156 368.328125 C 552.21875 377.34375 552.859375 386.402344 554.558594 395.257812 C 556.289062 404.257812 558.308594 421.011719 567.980469 425.453125 C 570.972656 426.824219 573.476562 426.929688 577.039062 426.980469 C 590.65625 427.167969 605.796875 419.265625 615.183594 409.871094 C 632.683594 392.375 636.125 346.925781 621.371094 328.082031 C 607.90625 310.875 560.550781 315.585938 555.445312 340.976562 C 553.691406 349.746094 552.601562 358.996094 552.410156 368.328125 "/>
<path style=" stroke:none;fill-rule:nonzero;fill:rgb(44.709778%,25.878906%,18.818665%);fill-opacity:1;" d="M 592.683594 363.699219 C 593.542969 363.074219 595.480469 363.34375 596.515625 363.070312 C 598.457031 362.5625 600.238281 362.632812 602.222656 362.757812 C 605.523438 362.960938 608.929688 363.398438 611.773438 365.121094 C 611.878906 365.222656 611.96875 365.222656 612.058594 365.113281 C 612.253906 364.976562 612.449219 364.832031 612.65625 364.695312 C 613.105469 364.378906 612.855469 362.769531 612.667969 362.363281 C 611.101562 358.902344 606.785156 357.8125 603.261719 357.691406 C 599.609375 357.566406 594.140625 357.789062 592.445312 361.769531 C 592.332031 362.03125 592.367188 363.917969 592.683594 363.699219 "/>
<path style=" stroke:none;fill-rule:nonzero;fill:rgb(44.709778%,25.878906%,18.818665%);fill-opacity:1;" d="M 575.230469 361.679688 C 573.566406 357.996094 568.769531 357.652344 565.300781 357.585938 C 561.460938 357.515625 556.277344 358.382812 554.589844 362.289062 C 554.414062 362.707031 554.261719 364.339844 554.722656 364.644531 C 554.945312 364.789062 555.15625 364.925781 555.382812 365.070312 C 555.425781 365.09375 555.472656 365.117188 555.519531 365.148438 C 558.246094 363.539062 561.125 363.167969 564.238281 362.816406 C 566.285156 362.578125 568.296875 362.476562 570.324219 362.820312 C 571.453125 363.019531 574.175781 362.984375 575.085938 363.636719 C 575.390625 363.855469 575.339844 361.9375 575.230469 361.679688 "/>
<path style=" stroke:none;fill-rule:nonzero;fill:rgb(44.709778%,25.878906%,18.818665%);fill-opacity:1;" d="M 568.160156 370.484375 C 568.160156 372.023438 567.152344 373.265625 565.917969 373.265625 C 564.6875 373.265625 563.683594 372.023438 563.683594 370.484375 C 563.683594 368.953125 564.6875 367.707031 565.917969 367.707031 C 567.152344 367.707031 568.160156 368.953125 568.160156 370.484375 "/>
<path style=" stroke:none;fill-rule:nonzero;fill:rgb(44.709778%,25.878906%,18.818665%);fill-opacity:1;" d="M 600.632812 370.542969 C 600.632812 372.074219 599.632812 373.324219 598.402344 373.324219 C 597.164062 373.324219 596.164062 372.074219 596.164062 370.542969 C 596.164062 369.011719 597.164062 367.765625 598.402344 367.765625 C 599.632812 367.765625 600.632812 369.011719 600.632812 370.542969 "/>
<path style=" stroke:none;fill-rule:nonzero;fill:rgb(96.078491%,46.269226%,34.509277%);fill-opacity:1;" d="M 571.769531 426.902344 C 592.429688 428.054688 622.527344 413.285156 625.585938 391.003906 C 625.652344 390.523438 624.40625 390.617188 624.214844 390.917969 C 621.710938 394.921875 620.199219 399.382812 617.882812 403.53125 C 614.285156 409.996094 605.21875 414.335938 598.957031 417.675781 C 593.34375 420.671875 587.839844 423.546875 581.519531 424.75 C 578.355469 425.351562 574.609375 425.292969 571.472656 426.367188 C 570.875 426.574219 571.402344 426.886719 571.769531 426.902344 "/>
<path style=" stroke:none;fill-rule:nonzero;fill:rgb(96.469116%,52.159119%,44.709778%);fill-opacity:1;" d="M 625.070312 368.785156 C 627.21875 366.777344 629.070312 361.183594 632.835938 363.171875 C 633.195312 363.363281 633.628906 363.386719 634.003906 363.546875 C 635.46875 364.167969 635.691406 365.644531 636.203125 366.921875 C 637.085938 369.121094 637.390625 371.605469 637.722656 373.925781 C 637.742188 374.046875 638.054688 374.046875 638.066406 373.925781 C 638.636719 369.722656 637.832031 362.980469 633.480469 361.015625 C 629.039062 358.996094 622.652344 363.839844 622.710938 368.472656 C 622.726562 369.339844 624.652344 369.171875 625.070312 368.785156 "/>
<path style=" stroke:none;fill-rule:nonzero;fill:rgb(96.078491%,46.269226%,34.509277%);fill-opacity:1;" d="M 579.039062 361.113281 C 579.175781 370.261719 576.082031 378.769531 575.21875 387.824219 C 574.785156 392.261719 585.074219 393.214844 587.867188 392.113281 C 588.035156 392.054688 588.167969 391.917969 588.1875 391.746094 C 588.214844 391.496094 588.238281 391.25 588.277344 391 C 588.339844 390.378906 586.835938 390.558594 586.585938 390.894531 C 583.996094 394.445312 577.132812 387.164062 577.765625 384.277344 C 578.46875 381.070312 579.132812 377.925781 579.546875 374.664062 C 580.164062 369.773438 580.460938 365.863281 579.410156 361.113281 C 579.386719 360.992188 579.039062 360.980469 579.039062 361.113281 "/>
<path style=" stroke:none;fill-rule:nonzero;fill:rgb(96.078491%,46.269226%,34.509277%);fill-opacity:1;" d="M 583.183594 402.605469 C 588.199219 404.953125 596.503906 401.234375 599.640625 396.992188 C 599.730469 396.835938 599.730469 396.679688 599.640625 396.527344 C 599.554688 396.375 599.46875 396.238281 599.382812 396.089844 C 598.949219 395.359375 597.445312 395.492188 596.871094 395.933594 C 593.070312 398.835938 589.039062 402.132812 583.863281 401.796875 C 583.457031 401.769531 582.386719 402.234375 583.183594 402.605469 "/>
<path style=" stroke:none;fill-rule:nonzero;fill:rgb(38.42926%,21.958923%,16.079712%);fill-opacity:1;" d="M 620.15625 363.035156 C 620.273438 365.371094 618.136719 371.878906 618.699219 373.925781 C 619.269531 375.980469 621.246094 376.589844 621.902344 374.964844 C 625.359375 371.839844 624.867188 363.484375 630.542969 362.6875 C 636.695312 361.820312 637.902344 370.839844 637.730469 374.964844 C 640.636719 369.207031 643.765625 362.960938 643.804688 356.847656 C 643.832031 353.578125 643.851562 345.652344 643.804688 339.769531 C 643.722656 327.621094 634.449219 316.679688 620.738281 317.539062 C 614.484375 317.933594 607.464844 321.265625 604.726562 327.199219 C 601.800781 333.5625 605.867188 338.890625 610.039062 343.4375 C 615.238281 349.113281 619.75 354.960938 620.15625 363.035156 "/>
<path style=" stroke:none;fill-rule:nonzero;fill:rgb(97.24884%,60.778809%,48.239136%);fill-opacity:1;" d="M 635.800781 363.214844 C 641.714844 369.164062 637.976562 386.441406 626.023438 392.058594 C 623.089844 388.765625 623.226562 379.945312 622.886719 375.589844 C 622.550781 371.3125 622.4375 367.214844 625.074219 363.617188 C 625.882812 362.503906 631.445312 358.835938 635.800781 363.214844 "/>
<path style=" stroke:none;fill-rule:nonzero;fill:rgb(96.078491%,46.269226%,34.509277%);fill-opacity:1;" d="M 626.085938 375.023438 C 625.976562 375.851562 625.300781 377.597656 625.953125 378.300781 C 626.476562 378.867188 627.03125 379.28125 627.757812 379.535156 C 629.132812 380.011719 630.605469 379.402344 631.308594 378.183594 C 632.0625 376.878906 632.25 375.171875 632.421875 373.703125 C 632.539062 372.632812 632.609375 371.441406 631.789062 370.621094 C 631.519531 370.351562 630.753906 370.351562 630.488281 370.621094 C 629.289062 371.8125 629.628906 374.015625 629.410156 375.5625 C 629.269531 376.476562 629.078125 377.636719 628.4375 378.367188 C 628.257812 378.578125 628.214844 378.476562 628.679688 378.449219 C 629.113281 378.417969 628.566406 378.289062 628.335938 378.113281 C 627.554688 377.519531 627.832031 375.902344 627.777344 375.023438 C 627.738281 374.433594 626.171875 374.445312 626.085938 375.023438 "/>
<path style=" stroke:none;fill-rule:nonzero;fill:rgb(96.078491%,46.269226%,34.509277%);fill-opacity:1;" d="M 629.515625 371.023438 C 631.121094 368.953125 632.710938 371.023438 633.082031 372.566406 C 633.304688 373.472656 633.253906 374.460938 633.167969 375.371094 C 632.996094 377.304688 631.558594 378.882812 630.949219 380.664062 C 630.796875 381.125 631.800781 381.109375 632.027344 380.972656 C 635.308594 378.9375 636.910156 374.039062 634.714844 370.675781 C 633.355469 368.597656 629.210938 368.316406 628.167969 370.847656 C 627.953125 371.378906 629.273438 371.335938 629.515625 371.023438 "/>
<path style=" stroke:none;fill-rule:nonzero;fill:rgb(44.709778%,25.878906%,18.818665%);fill-opacity:1;" d="M 586.410156 333.199219 C 587.941406 331.738281 589.574219 329.632812 591.789062 330.625 C 592.945312 331.136719 594.007812 333.816406 595.628906 334.609375 C 601.960938 337.730469 605.554688 334.910156 610.515625 336.429688 C 611.367188 342.625 610.964844 339.601562 617.460938 340.601562 C 622.691406 341.40625 627.367188 336.46875 630.636719 331.9375 C 633.941406 327.359375 638.523438 324.585938 636.226562 319.375 C 633.941406 314.195312 628.722656 312.753906 624.5625 309.554688 C 620.421875 306.382812 617.839844 301.628906 613.914062 298.203125 C 609.609375 294.449219 604.324219 291.804688 598.652344 290.933594 C 592.835938 290.035156 586.433594 290.824219 581.265625 293.71875 C 576.074219 296.628906 571.722656 297.351562 567.414062 301.214844 C 559.902344 307.929688 550.453125 288.195312 538.933594 315.515625 C 537.277344 319.441406 537.996094 332.933594 558.394531 338.359375 C 563.886719 339.820312 566 336.363281 570.679688 335.3125 C 576.414062 334.039062 581.289062 338.0625 586.410156 333.199219 "/>
<path style=" stroke:none;fill-rule:nonzero;fill:rgb(32.548523%,18.03894%,12.939453%);fill-opacity:1;" d="M 551.234375 308.617188 C 549.34375 310.441406 548.277344 312.472656 547.851562 315.078125 C 547.558594 316.855469 548.464844 319.925781 550.207031 320.828125 C 551.640625 321.5625 553.296875 321.433594 554.828125 320.996094 C 557.242188 320.296875 559.457031 319.847656 561.296875 321.8125 C 562.175781 322.75 563.152344 323.828125 563.824219 324.914062 C 563.992188 325.199219 565.183594 325.28125 565.105469 324.828125 C 564.863281 323.332031 562.980469 321.863281 561.972656 320.796875 C 560.890625 319.652344 559.75 319.34375 558.214844 319.550781 C 555.496094 319.914062 551.800781 321.6875 549.949219 318.726562 C 547.886719 315.425781 549.585938 311.433594 551.875 308.746094 C 552.019531 308.578125 551.367188 308.488281 551.234375 308.617188 "/>
<path style=" stroke:none;fill-rule:nonzero;fill:rgb(32.548523%,18.03894%,12.939453%);fill-opacity:1;" d="M 577.847656 320.839844 C 580.195312 322.519531 581.722656 322.09375 583.972656 320.34375 C 586.507812 318.363281 590.855469 312.128906 595.035156 317.886719 C 595.765625 318.886719 595.855469 320.402344 596.609375 321.492188 C 597.707031 323.085938 600.351562 323.3125 602.027344 323.585938 C 606.132812 324.273438 610.558594 323.339844 613.277344 320.042969 C 615.730469 317.074219 617.871094 309.773438 613.535156 307.941406 C 613.40625 307.890625 612.519531 307.839844 612.722656 308.183594 C 616.25 313.832031 611.117188 321.921875 604.964844 322.695312 C 601.09375 323.179688 598.242188 321.003906 597.078125 317.609375 C 596.859375 317 595.628906 315.902344 595.125 315.679688 C 593.21875 314.835938 591.523438 314.546875 589.460938 315.140625 C 586.171875 316.082031 581.859375 322.488281 578.589844 320.558594 C 578.390625 320.4375 577.507812 320.601562 577.847656 320.839844 "/>
<path style=" stroke:none;fill-rule:nonzero;fill:rgb(32.548523%,18.03894%,12.939453%);fill-opacity:1;" d="M 591.019531 300.546875 C 592.191406 298.902344 593.25 298.628906 595.285156 298.558594 C 597.316406 298.488281 598.828125 298.597656 600.101562 300.253906 C 601.917969 302.628906 602.296875 305.398438 600.699219 307.972656 C 601.355469 307.929688 602.011719 307.882812 602.671875 307.839844 C 602.5625 307.707031 602.460938 307.574219 602.359375 307.441406 C 602.171875 307.109375 601.316406 307.109375 601.125 307.441406 C 601.019531 307.574219 600.914062 307.707031 600.8125 307.839844 C 600.136719 308.582031 602.285156 308.847656 602.78125 308.253906 C 604.21875 306.53125 604.367188 304.328125 603.40625 302.375 C 602.734375 301.027344 601.765625 298.84375 600.171875 298.316406 C 598.164062 297.65625 596.292969 297.691406 594.191406 297.828125 C 592.066406 297.96875 591.128906 298.609375 590.144531 300.425781 C 589.992188 300.730469 590.863281 300.769531 591.019531 300.546875 "/>
<path style=" stroke:none;fill-rule:nonzero;fill:rgb(32.548523%,18.03894%,12.939453%);fill-opacity:1;" d="M 615.21875 326.882812 C 615.894531 329.820312 618.679688 328.464844 620.734375 327.882812 C 622.078125 327.492188 622.96875 326.101562 623.582031 324.957031 C 623.957031 324.269531 624.425781 323.640625 624.769531 322.90625 C 624.953125 322.523438 625.414062 321.480469 625.859375 321.300781 C 626.195312 321.164062 626.199219 320.792969 625.859375 320.65625 C 625.488281 320.503906 625.300781 320.523438 624.933594 320.5 C 624.613281 320.480469 624.117188 320.582031 623.921875 320.878906 C 623.027344 322.28125 622.105469 323.683594 621.347656 325.179688 C 620.886719 326.085938 620.25 326.851562 619.234375 327.140625 C 618.050781 327.476562 617.082031 328.351562 616.429688 326.796875 C 616.289062 326.480469 615.136719 326.507812 615.21875 326.882812 "/>
<path style=" stroke:none;fill-rule:nonzero;fill:rgb(32.548523%,18.03894%,12.939453%);fill-opacity:1;" d="M 605.234375 335.042969 C 605.1875 335.136719 605.148438 335.230469 605.105469 335.324219 C 604.949219 335.644531 605.898438 335.742188 606.015625 335.445312 C 606.851562 333.191406 611.074219 338.371094 611.453125 339.78125 C 611.5625 340.167969 611.941406 340.253906 612.300781 340.324219 C 615.632812 340.972656 620.34375 340.902344 623.257812 338.84375 C 626.207031 336.757812 633.550781 332.902344 631.613281 328.570312 C 631.480469 328.269531 630.734375 328.324219 630.585938 328.570312 C 628.121094 332.46875 615.019531 345.589844 611.914062 336.605469 C 610.894531 333.671875 607.484375 333.683594 605.148438 334.890625 C 605.039062 334.953125 604.945312 335.03125 604.996094 335.167969 C 605.039062 335.261719 605.066406 335.351562 605.105469 335.445312 C 605.214844 335.742188 606.15625 335.644531 606.015625 335.324219 C 605.964844 335.230469 605.929688 335.136719 605.886719 335.042969 C 605.804688 334.867188 605.3125 334.867188 605.234375 335.042969 "/>
<path style=" stroke:none;fill-rule:nonzero;fill:rgb(32.548523%,18.03894%,12.939453%);fill-opacity:1;" d="M 579.425781 306.453125 C 575.226562 306.703125 569.71875 309.292969 569.875 314.246094 C 569.9375 316.554688 571.25 320.925781 574.1875 320.511719 C 575.40625 320.339844 574.882812 319.453125 573.902344 319.476562 C 574.449219 319.464844 573.878906 319.289062 574.074219 319.445312 C 573.683594 319.144531 573.40625 318.515625 573.179688 318.085938 C 572.804688 317.382812 572.414062 316.539062 572.285156 315.738281 C 571.992188 313.894531 571.78125 312.742188 572.855469 311.0625 C 574.390625 308.664062 576.691406 307.234375 579.53125 306.839844 C 579.984375 306.78125 579.796875 306.429688 579.425781 306.453125 "/>
<path style=" stroke:none;fill-rule:nonzero;fill:rgb(15.689087%,18.03894%,23.919678%);fill-opacity:1;" d="M 570.96875 1271.851562 L 480.453125 1271.851562 L 480.453125 1267.664062 L 570.96875 1267.664062 L 570.96875 1271.851562 "/>
<path style=" stroke:none;fill-rule:nonzero;fill:rgb(100%,100%,100%);fill-opacity:1;" d="M 504.902344 1248.714844 C 505.277344 1249.464844 505.664062 1250.203125 506.140625 1250.898438 C 506.5625 1251.507812 507.027344 1251.953125 507.363281 1252.621094 C 508.078125 1254.019531 509.003906 1254.867188 510.664062 1254.691406 C 511.09375 1254.644531 511.566406 1254.480469 511.691406 1254.03125 C 511.695312 1254.003906 511.699219 1253.976562 511.71875 1253.945312 C 511.695312 1253.78125 511.621094 1253.652344 511.492188 1253.546875 C 510.695312 1252.984375 510.542969 1251.949219 509.828125 1251.34375 C 509.308594 1250.914062 508.710938 1250.601562 508.207031 1250.140625 C 507.648438 1249.636719 507.160156 1249.042969 506.675781 1248.46875 C 506.351562 1248.089844 504.566406 1248.03125 504.902344 1248.714844 "/>
<path style=" stroke:none;fill-rule:nonzero;fill:rgb(100%,100%,100%);fill-opacity:1;" d="M 512.605469 1246.144531 C 512.804688 1246.296875 512.804688 1247.277344 512.972656 1247.5625 C 513.300781 1248.113281 513.492188 1248.695312 513.851562 1249.238281 C 514.941406 1250.851562 516.503906 1251.957031 518.535156 1251.839844 C 518.910156 1251.820312 521.105469 1251.507812 520.441406 1250.613281 C 520.046875 1250.074219 519.457031 1249.703125 518.980469 1249.238281 C 518.4375 1248.707031 518.074219 1248.003906 517.574219 1247.4375 C 516.625 1246.347656 515.125 1245.261719 513.617188 1245.28125 C 513.320312 1245.28125 511.910156 1245.617188 512.605469 1246.144531 "/>
<path style=" stroke:none;fill-rule:nonzero;fill:rgb(100%,100%,100%);fill-opacity:1;" d="M 520.402344 1242.738281 C 520.515625 1242.464844 520.261719 1242.917969 520.394531 1243.152344 C 520.488281 1243.316406 520.597656 1243.480469 520.6875 1243.652344 C 520.984375 1244.1875 521.242188 1244.679688 521.59375 1245.183594 C 521.976562 1245.722656 522.316406 1246.292969 522.71875 1246.820312 C 523.105469 1247.324219 523.707031 1247.691406 524.125 1247.953125 C 524.933594 1248.46875 527.132812 1248.78125 527.449219 1247.511719 C 527.828125 1246.003906 526.316406 1244.515625 525.34375 1243.476562 C 524.425781 1242.480469 521.171875 1240.882812 520.402344 1242.738281 "/>
<path style=" stroke:none;fill-rule:nonzero;fill:rgb(100%,100%,100%);fill-opacity:1;" d="M 526.621094 1237.652344 C 527.101562 1238.5625 527.515625 1239.652344 528.175781 1240.453125 C 529.195312 1241.703125 529.941406 1242.339844 531.582031 1242.65625 C 532.371094 1242.804688 534.261719 1242.6875 534.386719 1241.609375 C 534.488281 1240.761719 533.535156 1240.046875 533.015625 1239.457031 C 532.136719 1238.457031 530.554688 1237.785156 529.433594 1237.070312 C 528.90625 1236.730469 528.308594 1236.636719 527.695312 1236.722656 C 527.3125 1236.773438 526.296875 1237.050781 526.621094 1237.652344 "/>
<path style=" stroke:none;fill-rule:nonzero;fill:rgb(100%,100%,100%);fill-opacity:1;" d="M 532.253906 1231.394531 C 532.605469 1231.636719 532.851562 1232.09375 533.078125 1232.445312 C 533.394531 1232.925781 533.820312 1233.253906 534.261719 1233.621094 C 535.15625 1234.363281 535.96875 1235.164062 537.082031 1235.582031 C 538.265625 1236.027344 539.644531 1235.835938 540.75 1235.226562 C 541.527344 1234.804688 542.3125 1233.902344 541.292969 1233.265625 C 539.039062 1231.878906 536.757812 1230.234375 534.035156 1229.953125 C 533.464844 1229.890625 531.144531 1230.609375 532.253906 1231.394531 "/>
<path style=" stroke:none;fill-rule:nonzero;fill:rgb(23.919678%,28.62854%,37.649536%);fill-opacity:1;" d="M 660.570312 1226.722656 L 658.964844 1233.1875 L 661.660156 1269.925781 C 661.660156 1269.925781 670.917969 1283.273438 689.890625 1277.765625 C 689.890625 1277.765625 703.886719 1269.792969 697.613281 1255.328125 L 686.921875 1229.308594 L 684.285156 1223.433594 L 679.527344 1217.28125 L 664.160156 1219.414062 L 660.570312 1226.722656 "/>
<path style=" stroke:none;fill-rule:nonzero;fill:rgb(100%,100%,100%);fill-opacity:1;" d="M 669.640625 1239.628906 C 671.992188 1239.167969 674.167969 1237.953125 676.496094 1237.550781 C 678.703125 1237.179688 680.558594 1237.5625 682.601562 1236.417969 C 684.164062 1235.546875 682.195312 1234.742188 681.351562 1234.714844 C 679.164062 1234.636719 676.863281 1234.890625 674.71875 1235.328125 C 672.472656 1235.800781 670.550781 1237.160156 668.539062 1238.15625 C 666.910156 1238.96875 668.480469 1239.859375 669.640625 1239.628906 "/>
<path style=" stroke:none;fill-rule:nonzero;fill:rgb(100%,100%,100%);fill-opacity:1;" d="M 670.542969 1248.144531 C 674.390625 1246.320312 678.257812 1245.941406 682.421875 1245.472656 C 685.015625 1245.179688 684.699219 1243.085938 682.132812 1243.371094 C 677.339844 1243.914062 672.585938 1244.253906 668.84375 1247.589844 C 668.058594 1248.28125 670.203125 1248.304688 670.542969 1248.144531 "/>
<path style=" stroke:none;fill-rule:nonzero;fill:rgb(100%,100%,100%);fill-opacity:1;" d="M 672.5 1256.554688 C 675.96875 1255.117188 679.824219 1253.984375 683.605469 1253.960938 C 685.863281 1253.945312 687.835938 1251.496094 684.5625 1251.519531 C 679.828125 1251.550781 674.167969 1252.390625 670.804688 1255.996094 C 670.050781 1256.796875 672.183594 1256.683594 672.5 1256.554688 "/>
<path style=" stroke:none;fill-rule:nonzero;fill:rgb(15.689087%,18.03894%,23.919678%);fill-opacity:1;" d="M 664.328125 1266.226562 C 668.667969 1271.414062 675.230469 1273.910156 681.972656 1272.84375 C 689.714844 1271.613281 693.707031 1268.367188 695.335938 1260.496094 C 695.484375 1259.789062 693.859375 1260.039062 693.625 1260.5 C 692.628906 1262.535156 691.191406 1268.28125 688.859375 1269.203125 C 686.78125 1270.03125 684.824219 1270.816406 682.628906 1271.34375 C 676.324219 1272.878906 669.734375 1270.449219 665.148438 1265.996094 C 664.953125 1265.8125 664.113281 1265.972656 664.328125 1266.226562 "/>
<path style=" stroke:none;fill-rule:nonzero;fill:rgb(15.689087%,18.03894%,23.919678%);fill-opacity:1;" d="M 664.722656 1236.210938 C 664.945312 1239.460938 665.679688 1242.570312 666.222656 1245.769531 C 666.882812 1249.6875 666.328125 1253.179688 668.308594 1256.796875 C 668.433594 1257.027344 669.160156 1256.925781 669.21875 1256.667969 C 670.695312 1250.207031 668.773438 1241.679688 665.292969 1236.09375 C 665.199219 1235.953125 664.710938 1236.019531 664.722656 1236.210938 "/>
<path style=" stroke:none;fill-rule:nonzero;fill:rgb(15.689087%,18.03894%,23.919678%);fill-opacity:1;" d="M 680.820312 1231.015625 C 681.734375 1235.355469 682.710938 1239.613281 683.34375 1244.011719 C 683.890625 1247.914062 683.917969 1251.929688 686.390625 1255.183594 C 686.574219 1255.421875 687.359375 1255.359375 687.441406 1255.039062 C 687.828125 1253.496094 687.628906 1252.726562 687.105469 1251.164062 C 686.328125 1248.824219 686.5 1246.042969 686.160156 1243.621094 C 685.511719 1238.984375 684.652344 1234.867188 682.660156 1230.632812 C 682.425781 1230.144531 680.691406 1230.417969 680.820312 1231.015625 "/>
<g clip-path="url(#clip1)" clip-rule="nonzero">
<path style=" stroke:none;fill-rule:nonzero;fill:rgb(36.859131%,79.219055%,88.62915%);fill-opacity:1;" d="M 682.324219 577.417969 C 682.867188 584.535156 683.433594 591.65625 683.960938 598.777344 C 686.214844 629.707031 688.890625 660.601562 690.976562 691.539062 C 691.921875 705.667969 694.015625 719.855469 694.652344 733.980469 C 695.222656 746.597656 707.953125 765.183594 693.933594 773.832031 C 685.722656 778.902344 674.234375 781.070312 664.851562 782.574219 C 645.078125 785.753906 625.507812 776.292969 606.375 784.164062 C 597.664062 787.753906 588.773438 793.132812 581.46875 799.070312 C 574.136719 805.035156 568.804688 814.617188 560.09375 818.707031 C 535.234375 830.386719 540.511719 793.285156 538.207031 780.410156 C 535.519531 765.421875 524.824219 758.457031 511.8125 752.945312 C 503.585938 749.453125 497.34375 747.835938 497.992188 738.40625 C 500.210938 706.320312 504.464844 673.953125 507.089844 641.75 C 509.007812 618.242188 511.289062 594.746094 513.382812 571.242188 L 511.84375 622.324219 L 442.214844 582.582031 L 470.351562 511.820312 C 478.574219 491.878906 494.546875 481.710938 494.546875 481.710938 L 572.179688 450.433594 C 572.179688 450.433594 592.019531 458.253906 617.460938 450.433594 L 677.1875 475.453125 C 677.1875 475.453125 709.058594 485.625 714.535156 502.828125 L 750.546875 603.902344 L 685.300781 616.074219 L 682.324219 577.417969 "/>
</g>
<path style=" stroke:none;fill-rule:nonzero;fill:rgb(97.24884%,60.778809%,48.239136%);fill-opacity:1;" d="M 539.761719 785.183594 C 539.761719 785.183594 507.191406 681.085938 483.148438 627.980469 C 483.148438 627.980469 450.210938 634.214844 448.300781 661.570312 C 448.300781 661.570312 446.007812 675.644531 464.796875 702.226562 L 521.078125 788.429688 L 520.382812 813.621094 C 515.035156 815.929688 553.511719 793.902344 539.761719 785.183594 "/>
<path style=" stroke:none;fill-rule:nonzero;fill:rgb(31.369019%,67.449951%,75.289917%);fill-opacity:1;" d="M 528.746094 470.773438 C 525.082031 494.378906 522.8125 518.238281 518.996094 541.8125 C 517.015625 554.070312 515.710938 566.425781 513.664062 578.675781 C 512.785156 583.925781 512.378906 589.230469 511.789062 594.511719 C 511.132812 600.324219 508.945312 604.511719 509.222656 610.339844 C 509.285156 611.578125 512.542969 611.53125 512.746094 610.339844 C 516.601562 587.613281 519.382812 564.707031 522.765625 541.8125 C 524.539062 529.808594 525.816406 517.667969 527.261719 505.609375 C 528.613281 494.296875 531.796875 482.136719 530.800781 470.773438 C 530.738281 470.050781 528.859375 470.066406 528.746094 470.773438 "/>
<path style=" stroke:none;fill-rule:nonzero;fill:rgb(31.369019%,67.449951%,75.289917%);fill-opacity:1;" d="M 667.316406 473.113281 C 673.652344 498.8125 673.535156 524.601562 677.148438 550.621094 C 678.761719 562.238281 678.71875 574.003906 680.671875 585.589844 C 682.445312 596.1875 680.386719 608.90625 685.039062 618.675781 C 685.300781 619.222656 686.773438 619.15625 686.910156 618.554688 C 689.234375 608.925781 687.003906 595.246094 685.167969 585.589844 C 682.746094 572.890625 682.949219 559.804688 681.1875 547.007812 C 677.738281 522.042969 679.164062 496.707031 669.339844 472.980469 C 669.109375 472.433594 667.167969 472.511719 667.316406 473.113281 "/>
<path style=" stroke:none;fill-rule:nonzero;fill:rgb(31.369019%,67.449951%,75.289917%);fill-opacity:1;" d="M 564.59375 455.082031 C 563.863281 454.933594 565.5625 456.9375 565.933594 457.144531 C 568.453125 458.609375 570.820312 460.042969 573.5 461.183594 C 578.675781 463.390625 585.191406 463.101562 590.695312 463.664062 C 600.992188 464.71875 615.808594 464.539062 623.742188 456.703125 C 625.785156 454.679688 619.625 453.710938 618.226562 455.121094 C 609.761719 463.664062 585.261719 462.773438 574.195312 458.484375 C 570.957031 457.234375 568.300781 452.90625 564.59375 453.625 C 563.230469 453.886719 563.230469 454.816406 564.59375 455.082031 "/>
<path style=" stroke:none;fill-rule:nonzero;fill:rgb(31.369019%,67.449951%,75.289917%);fill-opacity:1;" d="M 618.996094 548.960938 C 619.097656 553.359375 618.238281 557.75 617.871094 562.140625 C 617.484375 566.679688 618.238281 571.222656 618.09375 575.78125 C 617.945312 580.535156 617.292969 585.910156 622.917969 587.523438 C 629.984375 589.546875 638.449219 587.582031 645.644531 587.285156 C 650.277344 587.09375 656.917969 586.3125 659.925781 582.34375 C 661.609375 580.117188 660.679688 575.714844 660.691406 573.1875 C 660.714844 568.695312 660.730469 564.199219 660.753906 559.707031 C 660.773438 555.246094 661.859375 546.097656 656.273438 544.492188 C 651.082031 543.007812 645.453125 544.417969 640.363281 545.539062 C 633.460938 547.070312 624.335938 545.421875 617.941406 548.433594 C 617.550781 548.613281 617.316406 549.015625 617.699219 549.339844 C 619.742188 551.054688 621.660156 550.882812 624.300781 551.050781 C 628.652344 551.3125 634.4375 550.703125 638.792969 549.65625 C 641.328125 549.046875 653.246094 544.472656 653.347656 550.324219 C 653.449219 556.238281 654.027344 562.183594 654.050781 568.183594 C 654.074219 571.070312 655.472656 580.6875 652.730469 582.242188 C 646.804688 585.617188 635.804688 584.917969 629.199219 585.019531 C 620.671875 585.140625 623.175781 573.03125 622.195312 567.183594 C 621.175781 561.121094 621.824219 555.070312 620.609375 548.960938 C 620.507812 548.421875 618.984375 548.402344 618.996094 548.960938 "/>
<path style=" stroke:none;fill-rule:nonzero;fill:rgb(96.078491%,46.269226%,34.509277%);fill-opacity:1;" d="M 471.777344 619.023438 C 473.019531 623.699219 477.070312 628.007812 479.125 632.492188 C 482.199219 639.214844 486.875 645.3125 490.082031 652.042969 C 497.417969 667.476562 502.992188 683.542969 508 699.875 C 515.765625 725.25 524.414062 751.535156 535.652344 775.636719 C 535.84375 776.03125 537.273438 776.015625 537.164062 775.542969 C 531.945312 750.898438 519.832031 727.496094 512.425781 703.457031 C 507.402344 687.152344 501.851562 670.976562 494.601562 655.515625 C 488.542969 642.589844 480.472656 631.128906 473.4375 618.914062 C 473.214844 618.527344 471.640625 618.5 471.777344 619.023438 "/>
<path style=" stroke:none;fill-rule:nonzero;fill:rgb(31.369019%,67.449951%,75.289917%);fill-opacity:1;" d="M 528.671875 720.429688 C 537.65625 727.964844 548.113281 737.355469 552.835938 748.015625 C 555.761719 754.621094 554.84375 761.335938 556.464844 768.183594 C 557.785156 773.773438 556.507812 779.855469 559.210938 784.914062 C 559.925781 786.246094 564.4375 786.148438 563.886719 784.285156 C 560.371094 772.289062 562.671875 759.152344 557.808594 747.34375 C 553.019531 735.695312 541.34375 726.523438 531.015625 719.753906 C 530.421875 719.367188 527.695312 719.609375 528.671875 720.429688 "/>
<path style=" stroke:none;fill-rule:nonzero;fill:rgb(31.369019%,67.449951%,75.289917%);fill-opacity:1;" d="M 541.90625 707.617188 C 553.339844 713.417969 567.867188 717.320312 580.566406 718.464844 C 587.550781 719.089844 594.585938 718.804688 601.582031 719.21875 C 605.113281 719.417969 608.269531 719.410156 610.804688 716.890625 C 611.5625 716.148438 609.773438 715.894531 609.359375 715.96875 C 587.757812 719.648438 563.628906 714.214844 543.375 706.683594 C 542.789062 706.464844 540.726562 707.011719 541.90625 707.617188 "/>
<path style=" stroke:none;fill-rule:nonzero;fill:rgb(31.369019%,67.449951%,75.289917%);fill-opacity:1;" d="M 630.011719 759.207031 C 639.171875 764.929688 650.308594 767.847656 661.023438 766.15625 C 668.558594 764.964844 681.15625 760.898438 681.558594 751.761719 C 681.601562 750.710938 679.234375 751.054688 678.816406 751.582031 C 666.761719 766.75 648.257812 767.628906 631.671875 758.390625 C 631.046875 758.046875 628.859375 758.488281 630.011719 759.207031 "/>
<path style=" stroke:none;fill-rule:nonzero;fill:rgb(31.369019%,67.449951%,75.289917%);fill-opacity:1;" d="M 653.226562 623.917969 C 654.953125 633.667969 655.40625 644.40625 656.011719 654.328125 C 656.695312 665.625 659.414062 680.023438 656.03125 690.988281 C 655.886719 691.460938 656.128906 691.730469 656.546875 691.945312 C 656.953125 692.152344 657.347656 692.359375 657.75 692.566406 C 658.242188 692.824219 661.53125 692.886719 660.757812 691.714844 C 660.523438 691.355469 660.28125 690.992188 660.042969 690.628906 C 659.6875 690.089844 658.355469 690.089844 657.996094 690.628906 C 657.761719 690.992188 657.523438 691.355469 657.285156 691.714844 C 658.382812 691.640625 659.476562 691.570312 660.570312 691.496094 C 659.570312 690.621094 660.964844 681.96875 660.957031 680.824219 C 660.90625 673.15625 659.90625 665.585938 659.621094 657.933594 C 659.214844 646.964844 658.59375 634.300781 655.386719 623.773438 C 655.203125 623.164062 653.109375 623.253906 653.226562 623.917969 "/>
</g>
</svg>
